/* XPM */
static char *_aa0f1f3d63948a389d4aae530969501BjtEmJxdFzCACAY9[] = {
/* columns rows colors chars-per-pixel */
"40 54 256 2 ",
"   c None",
".  c #7E7B94",
"X  c None",
"o  c #66617B",
"O  c #787188",
"+  c #CBC4B1",
"@  c #736F8B",
"#  c #A8A09F",
"$  c #8B84A0",
"%  c #CCC5B6",
"&  c #97A1BE",
"*  c #6C6782",
"=  c #DED5B9",
"-  c #797889",
";  c #B5B2AE",
":  c #DCCFAA",
">  c #EBE0B7",
",  c #6A6375",
"<  c #7F737B",
"1  c #858297",
"2  c #6E6A85",
"3  c #747089",
"4  c #AAA3A5",
"5  c #87849D",
"6  c #EADDAD",
"7  c #E7D9AD",
"8  c #E7DBB3",
"9  c #868795",
"0  c #D7D0B9",
"q  c #D0C194",
"w  c #666685",
"e  c #8687A1",
"r  c #877D83",
"t  c #626A90",
"y  c #726B78",
"u  c #8C8792",
"i  c #ADA59D",
"p  c #948D8B",
"a  c #868FAF",
"s  c #767F9D",
"d  c #DAD1B3",
"f  c #DFCB9D",
"g  c #F4E8B9",
"h  c #686075",
"j  c #C7BDA6",
"k  c #E4D7A6",
"l  c #726D82",
"z  c #576289",
"x  c #7F747E",
"c  c #E8DEB5",
"v  c #E5DDC0",
"b  c #E1D9B9",
"n  c #7B81A2",
"m  c #757793",
"M  c #E2DCC2",
"N  c #868CAE",
"B  c #887E87",
"V  c #DCCEA3",
"C  c #707493",
"Z  c #DDD4B6",
"A  c #888BA3",
"S  c #E7DBAF",
"D  c #B2A69B",
"F  c #4B4960",
"G  c #ECE9CF",
"H  c #9F989A",
"J  c #F4EFCE",
"K  c #BDB5A9",
"L  c #767A9B",
"P  c #D8C782",
"I  c #EEEAD2",
"U  c #686078",
"Y  c #F4EAB4",
"T  c #716775",
"R  c #8C92B1",
"E  c #E7DDBA",
"W  c #575A72",
"Q  c #E2DFC8",
"!  c #E4D7AB",
"~  c #63627B",
"^  c #616382",
"/  c #7E7785",
"(  c #ADA196",
")  c #676C91",
"_  c #5D6179",
"`  c #3A3C4E",
"'  c #707393",
"]  c #C1BAA8",
"[  c #CBCFCD",
"{  c #B6C3CB",
"}  c #A6BDCD",
"|  c #948B8F",
" . c none",
".. c #858AA0",
"X. c #F5EDBB",
"o. c #696F91",
"O. c #726674",
"+. c #36354D",
"@. c #EAE4C9",
"#. c #434256",
"$. c #B8C6D1",
"%. c #DED6B7",
"&. c #615D71",
"*. c #EEEDDD",
"=. c #E4D5A9",
"-. c #FFA748",
";. c #762B84",
":. c #FFFFFB",
">. c #7682A4",
",. c #292B38",
"<. c #5F6684",
"1. c #9BBDE7",
"2. c #F2F3E8",
"3. c #FBFEF9",
"4. c #C3D1DE",
"5. c #AAB4D1",
"6. c #E3E6DC",
"7. c #727A98",
"8. c #F6F7EE",
"9. c #1B2449",
"0. c #697395",
"q. c #EBDFB7",
"w. c #2D385F",
"e. c #B1BCD6",
"r. c #2C3556",
"t. c #B7C3D6",
"y. c #9DA7C3",
"u. c #8794B3",
"i. c #403E3D",
"p. c #646E90",
"a. c #6F7BA0",
"s. c #CCD1D2",
"d. c #998E87",
"f. c #1E2850",
"g. c #8CADDC",
"h. c #1E2338",
"j. c #9099B8",
"k. c #DBD9CC",
"l. c #F9FAF4",
"z. c #C8C1B1",
"x. c #8D909F",
"c. c #F1EFD8",
"v. c #243366",
"b. c #202C59",
"n. c #161F42",
"m. c #3D538B",
"M. c #5E698E",
"N. c #E7E1C6",
"B. c #D5D1C1",
"V. c #E6E5D3",
"C. c #E1DABE",
"Z. c #DBDED7",
"A. c #EAEDE3",
"S. c #ACB5C6",
"D. c #EBE8D8",
"F. c #8EABD0",
"G. c #7D8094",
"H. c #6A759B",
"J. c #F5F4DF",
"K. c #ECFDFA",
"L. c #29396F",
"P. c #141B3D",
"I. c #304178",
"U. c #847979",
"Y. c #A5AFCC",
"T. c #D7C77F",
"R. c #424B6B",
"E. c #151A33",
"W. c #384264",
"Q. c #33477E",
"!. c #6C89BB",
"~. c #343541",
"^. c #51699D",
"/. c #BCCADB",
"(. c #C3B392",
"). c #D1C6A5",
"_. c #3C4052",
"`. c #262D4A",
"'. c #484643",
"]. c #C4CCD4",
"[. c #7B8DAE",
"{. c #E8E9DF",
"}. c #D6CDAC",
"|. c #EBF3F0",
" X c None",
".X c #BCC4CD",
"XX c #6F6C75",
"oX c #686A7C",
"OX c #857A6E",
"+X c #9D9EA7",
"@X c #F9F3CF",
"#X c #444E71",
"$X c #475785",
"%X c #818BA6",
"&X c #B3BDCE",
"*X c #A3ADCB",
"=X c #445A91",
"-X c #DDCF8B",
";X c #AEBACE",
":X c #81A0D0",
">X c #5A73A4",
",X c #9F9263",
"<X c #95B6E2",
"1X c #637DAC",
"2X c #4D5779",
"3X c #696351",
"4X c #514C43",
"5X c #949BAF",
"6X c #9CBCDE",
"7X c #585244",
"8X c #BBD9ED",
"9X c #A5C5E8",
"0X c #7C87A9",
"qX c #776E5C",
"wX c #5D5A5E",
"eX c #CADEEB",
"rX c #8B8282",
"tX c #77717F",
"yX c #6C7085",
"uX c #E5D3A8",
"iX c #A89183",
"pX c #8D8C95",
"aX c #BEA28B",
"sX c #BCAC71",
"dX c #ACCBDC",
"fX c #7693C3",
"gX c #AFA16E",
"hX c #3D4F84",
"jX c #2F3D6B",
"kX c #BDB39F",
"lX c #5D5C6C",
"zX c #535563",
"xX c #99B0C5",
"cX c #6A6569",
"vX c #D8EAEE",
"bX c #605A4F",
"nX c #92A5C2",
"mX c #AF9C82",
"MX c #BEC0C1",
"NX c #CDCFCB",
"BX c #A7BDD7",
"VX c #6E727F",
"CX c #9CA5B0",
"ZX c #D4DCE1",
"AX c #E0D5B4",
"SX c #A48D7B",
"DX c #C0AF83",
"FX c #536DA2",
"GX c #C6BA99",
"HX c #4E6393",
"JX c #565248",
"KX c #F3EDCC",
"LX c #A5A29F",
"PX c #CDD5DC",
"IX c #D0B391",
"UX c #47704C",
/* pixels */
"                                                                                ",
"                                                                                ",
"                                                                                ",
"                                                                                ",
"                                                                                ",
"                      # + 0 0 0 Z = = = + % #                                   ",
"                    = E 6 > > > > 8 8 k =.! 7 V : 0 #                           ",
"                  # 7 g g q.q.q.q.N.N.C.d X X S 8 6 7 c 0 #                     ",
"                    : Y @X{.Z.N.C.8.3.l.8.D.c.J.g q.f f 6 7 : %                 ",
"                    + 6 c.ZXs.C.k.l.:.:.:.2.J.@Xg @XX ).AXuXk 7 M #             ",
"                    Z Y c.PXs.B.D.:.3.:.l.6.AXuXuX@Xc.2.8.D.C.S 8 b Z           ",
"                    c X.N.].s.k.2.3.K.3.|.NX(.IXf C.8.:.:.:.l.V.}.X 6 v +       ",
"                    I J V.].s.V.8.K.K.K.PX; aXSXaXz.8.3.:.:.:.{.z.).X f ! =     ",
"                    M %.B..X].6.2.|.K.vXt. XiXSXmXz.2.l.:.:.l.k.z.k.D.X q.b $   ",
"                    = ] kXMX.XZ.{.eXeX/.S.x.OXOXd.MXA.l.3.8.2.k.B.8.8.q.> v $   ",
"                  $ : ( LX; &Xs.s.;X;XBXBXnXXXXXCX.XA.l.|.{.A.k.6.3.J.> : #     ",
"                  % b i x.; S.S.y.u.F.1.1.F.yXu.4.s.6.|.6.6.A.A.8.2.KXG #       ",
"              O e [ Q  XG.+X5Xu.1X!.g.1.1.F.[.6XeXvXZ.6.Z.6.2.8.8.c.J v $       ",
"              &.y  Xi rXyX9 >.>X^.fXg.<X1.F.F.9X8X8X.XNXZ.6.2.J.V.V.G %         ",
"            $ F ` bXqXwXzX_ HXm.>X:Xg.<X1.9X9X1.1.<XnX; B.{.J.N.B.Q M           ",
"              F ` i.7Xi.~.r.jXQ.FX!.:X6XdXdX8X1.<Xg.fXx.z.D.C.}.d E %           ",
"              h  .,.'.i.,.`.b.v.Q.=X^.>X>.[.F.6Xg.:X1X0.z.d ).}.8 c             ",
"              @ +.h.i.i.,.h.9.b.L.Q.m.=Xu.[.^.1X!.!.^.p.; (.GX).@.I             ",
"              O #.,.i.'.,.E.n.f.v.I.hXa.t.j.=Xm.m.m.hXyXp mX(.).c.*.K $         ",
"              2 W _.4X7X,.E.P.f.v.I.M.S.4.& $XQ.I.L.jXlXcXOXgXT.S d j #         ",
"            + ..s VX3XbX,.E.P.f.w.$Xy.4.].S.$XI.L.v.w.zXwX3X,XT.-X-Xj #         ",
"            $.} xXCXOXqX'.h.h.f.#X5X4.4.].t.z L.v.b.f._.'.JX,XT.-Xk :           ",
"          # { xX[.pXd.d.XX~.`.`.<.&X4.4.4./.0.w.b.9.n.~.i.4X,XT.P V %           ",
"            1 C p.pXp d.VX_.`.r.R.%X&X;X/.t.s b.9.n.P.,.~.4XgXP V #             ",
"            @ ~ <.pX XpXoXW.r.w.R.%XY.& *X7.#Xf.n.P.E.h.,.7XsXq +               ",
"              * ^ G.+X+X7.<.2X2X7.5.5.5.& R.r.9.n.9.9.h.,.3XsXq +               ",
"                o ' A A n %Xj.& 5.t.e.e.y.2Xr.9.9.w.w.r._.qXDXq +               ",
"                  * 1 5 3 m j.*X5.e.e.e.5.a #Xr.w.W.W.W.R.U.(.q %               ",
"                  $ $ $   o N y.Y.e.t.5.5.Y.u.0.p.M.z z <.p kXD %               ",
"                          @ R j.y./.e.5.5.y.a n n 0X>.0.<.r D K                 ",
"                          U N u.u.a j.*X*XN e 1 e L s t m 1 @                   ",
"                        $ 4 A 0X>.p.a y.& e $   $ 3 w o O                       ",
"                      # 4 ] 9 s 9 pXj.& R .         $ $                         ",
"                      @ B d.tXtXU.d.x.5XH @                                     ",
"                      O ~ oX7.- wXcXXXrX( 5                                     ",
"                      # , 0.>.7.lX<.<.XXr 3                                     ",
"                      # o.H.>.7.<.H.M._ , O                                     ",
"  # . . #           $ * ) a.0X>.a.H.M.^ *                                       ",
"  w < H | h 2 5 5 2 l ) H.>.a.7.>.H.t w $                                       ",
"  2 T U.U.y y C C t M.p.0.0.M.p.>.a.t w                                         ",
"    o , , O.T r 9 - oX<.p.7.+X9 H.>.0.' .                                       ",
"      $ # O U 2 l x T y tXd.X aX- a.>.7.m 5                                     ",
"                  O U h , < iXiXrX- G.G.7.L 3 @                                 ",
"                      $ # o x u u B < / - - / u 4 4 4 +                         ",
"                          $ # + % O . 3 l B r p ; i i j O                       ",
"                                        # @ * 1 x < < u .                       ",
"                                              $ O * o @                         ",
"                                                                                ",
"                                                                                "
};
