/* XPM */
static char *enemy_walk_11710343726[] = {
/* columns rows colors chars-per-pixel */
"50 46 36 1 ",
"  c None",
". c black",
"X c #131712",
"o c #1E231B",
"O c #252A22",
"+ c #262628",
"@ c #2D3129",
"# c #32372F",
"$ c #373C34",
"% c #3B4139",
"& c #3F443D",
"* c #444942",
"= c #4A4D47",
"- c #50544D",
"; c #565953",
": c #5C605A",
"> c #60645E",
", c #666964",
"< c #6D716B",
"1 c #757873",
"2 c #7D807B",
"3 c #858984",
"4 c #8E918C",
"5 c #9B9E99",
"6 c #A5A6A5",
"7 c #ADAFA9",
"8 c #B6B9B4",
"9 c #BEC1BD",
"0 c #C9CCC8",
"q c #D5D8D4",
"w c #E0E1DF",
"e c #E9EBE8",
"r c #F2F4F1",
"t c #F7F8F6",
"y c #F8FCF7",
"u c #FCFDFA",
/* pixels */
"                                                  ",
"                                                  ",
"                                                  ",
"                                                  ",
"                          988899q                 ",
"                          4%#$%-,60               ",
"                          q=ooO%&&:69q72@2        ",
"                          4%oO@%*&&*>1#$$1        ",
"                        5$O@O@##%%##@$@&:2        ",
"                        5$O%$$%%$$@oo#*>>2        ",
"                     743&oO##*=&#$$@@*,1<;8       ",
"              94434506=OooOOO$*&&&#$&=;-;*<8      ",
"             8;%&#%%>1=##@##Oo@$&@O$%%%%=,-;8     ",
"            9>%**&**$$%%&&&&#oOO@O@$=;=&=>;#4     ",
"           9-%*&&&--=*&&>1<<*#Oooo#*:>=$%=,;4     ",
"  w7e      4@#$&;-:<<-*<68871*OooO@=>-&##%:1<7    ",
"  0-3e   r7;@#%;><46732765784=OO&-=;:*%#;4<,2<7t  ",
"  0&*4w  8*@@@%=,54,3448<->3,&@@$-;:;:-*;23,<:=8  ",
"  0->-:47;$;*O%;24>@&-38;#&-&&%$#@##$;;--:>;,>&5  ",
"  0>2,$*-&:2=O%=;-&@#%27-#%&%*=*$oooo@$*==-;>;3   ",
"   7<22,&:3<#O#%%&&@O#:-##%&*=*%@oXo.X=584===3w   ",
"    7<22<13-O#$%%%#Oo#&#@@#&*$OO#@-<O#;=30000wu   ",
"     7>::::&@%&%&$oX$60008;XXXXX$;6972%<<4        ",
"      wqqq02:3>%%@XX4r    0*OOoo:<2594#=-<        ",
"         y7>483=&@o#8y        7-===:,&*&o;9w      ",
"         e3;705<*%=5               7*$&*$*=2w     ",
"         7>497<>>6wr                 6=@;6614     ",
"        e4189<4                       8-;<1>5     ",
"       w4188,o4                          :;4      ",
"       7:6q4o+7                                   ",
"       7;503X1                                    ",
"       7>696*3                                    ",
"       7<087<3                                    ",
"       07w9878                                    ",
"                                                  ",
"                                                  ",
"                                                  ",
"                                                  ",
"                                                  ",
"                                                  ",
"                                                  ",
"                                                  ",
"                                                  ",
"                                                  ",
"                                                  ",
"                                                  "
};
