/* XPM */
static char *enemy_walk_41710343726[] = {
/* columns rows colors chars-per-pixel */
"50 46 51 1 ",
"  c None",
". c black",
"X c #191C14",
"o c #21271D",
"O c #262627",
"+ c #272D26",
"@ c #2E3127",
"# c #2F342D",
"$ c #33392E",
"% c #363934",
"& c #383F34",
"* c #3D413A",
"= c #40443B",
"- c #42483D",
"; c #454643",
": c #444C41",
"> c #494D46",
", c #4F5448",
"< c #4F514D",
"1 c #54574F",
"2 c #585B52",
"3 c #5C5E58",
"4 c #62655E",
"5 c #5E5F60",
"6 c #686B64",
"7 c #6F716D",
"8 c #717364",
"9 c #757771",
"0 c #787B75",
"q c #7F837C",
"w c #878984",
"e c #8E918B",
"r c #959692",
"t c #999C96",
"y c #9E9E9C",
"u c #A3A5A0",
"i c #A6A6A7",
"p c #ACADA7",
"a c #AFB1AB",
"s c #B6B7B4",
"d c #BCBEB9",
"f c #C3C4BF",
"g c #CBCCC7",
"h c #D1D2CE",
"j c #D7D9D5",
"k c #DFE0DD",
"l c #E6E7E5",
"z c #EEEEEA",
"x c #F4F5F2",
"c c #F8F9F5",
"v c #FDFDFA",
/* pixels */
"                                                  ",
"                                                  ",
"                                                  ",
"                                                  ",
"                                                  ",
"                                                  ",
"                                                  ",
"                                                  ",
"                        kuyyiaih                  ",
"                        j7#O#;;9uh    dyj         ",
"                        viOOo#>;;7yhsw>%s         ",
"                      kte4o+$%;;;;*7<O=*d         ",
"                      kq#+#+#%#**##@##5<s         ",
"                      h6++-&&*%#%@o+*10>p         ",
"                   jq73+o++&>-*%=&@%349>6j        ",
"            ke9099rgq+ooo++o*-==&$$*,>,>30h       ",
"           k0**=%&>63*%$%*#o++&&+$*-=*:43&6j      ",
"           0;;;-->=$*==---*+oo+@@&-,2-=,4,-g      ",
"lx        w***;;>3,:-=10q06=@oooo$,41=&$,82d      ",
">y        3$@%<414q9,2esddu4#ooo@$22-*$&=809g     ",
".%px    z0%+$:46qtapqeattpa6#o@-,261-=$qe4988g    ",
"OO>ax   j<%#&-2wu4,wwuu,:40:&$o&,,132>=3qq38-4    ",
"9#%2ujzj0>6&$:6qq=+:3uy&&::&-=$#@+@:,>1,423613    ",
" 023=>t7*70&$----&@$,rw$&&&-::-$oXo#->><<<325f    ",
" t6q3>>&<q>o@&*-&#oo*3$o@$-::$oO+&>r   h0<<5dx    ",
"  r6qw3>90&o#&**=oXXo+$@X@:>&oo++w                ",
"   r777774$o*-*&#X.o@>   $=>&oO%%r                ",
"   zr4459d9+3<*-*Xo>#1   #@><>%<1r                ",
"          g=44276O4e%<   6;-4ww*o7k               ",
"          k;7erw1#wu32z   a13ah0X*t               ",
"          k;7yu3p76yu9d    t>0t5X79u              ",
"          k<7pp3js*rgr4z   f1o%*#07y              ",
"          k2qga6kf%ehp7tf  xs<%<>4<y              ",
"          k3qgs6kk00hha99s   f3%;%#u              ",
"          k40sdwrshqwddt76   cs1<67ej             ",
"          zy9pgpwwugq70;36     rqhgueh            ",
"           zuqwwre5kkyutia     r3ppa7p            ",
"                                                  ",
"                                                  ",
"                                                  ",
"                                                  ",
"                                                  ",
"                                                  ",
"                                                  ",
"                                                  ",
"                                                  "
};
