/* XPM */
static char *enemy_walk_21710343726[] = {
/* columns rows colors chars-per-pixel */
"50 46 44 1 ",
"  c None",
". c black",
"X c #111410",
"o c #1C201A",
"O c #23281F",
"+ c #242526",
"@ c #272927",
"# c #2D3029",
"$ c #31352E",
"% c #343A30",
"& c #363A35",
"* c #3A3F36",
"= c #3C413A",
"- c #3F433D",
"; c #43473F",
": c #474C44",
"> c #4C4F4A",
", c #50554D",
"< c #565A52",
"1 c #5B5D58",
"2 c #60635E",
"3 c #666963",
"4 c #6E706B",
"5 c #72756F",
"6 c #797B77",
"7 c #7F837D",
"8 c #878A84",
"9 c #8C9188",
"0 c #979994",
"q c #9DA099",
"w c #A3A89D",
"e c #A6A5A6",
"r c #AFAFA7",
"t c #B6B8B2",
"y c #BFC1BE",
"u c #C7C9C6",
"i c #CDCFCC",
"p c #D3D4D2",
"a c #D9DBD8",
"s c #E1E3E1",
"d c #E8E9E8",
"f c #EFEFEF",
"g c #F7F8F7",
"h c #FAFAF9",
/* pixels */
"                                                  ",
"                                                  ",
"                                                  ",
"                                                  ",
"                                                  ",
"                          prrrtty                 ",
"                          y<##%;>8ts    ytd       ",
"                          g0+oO*--,8tayq:-i       ",
"                        pqq3+@#&;---:7,#==u       ",
"                        u3####$%&-*&$&#@2>u       ",
"                        u2@&-&=-&%&#O#*,4>u       ",
"                     a092@O#&->;=*=##*<35>8s      ",
"              s96666wp6#+Oo##@=:;-&%=-,,,;<8s     ",
"             s8=$&$$,74&#$$&$O@&=$#%--=;-<2:8s    ",
"            s7;;:;;;===;*=-&&#OOO@#&-,<--<3;:p    ",
"           a5=*-;=,2:;*-<5541*#ooO#%,2<=*=,21p    ",
" 02y      p3#&#-><>353:<9ttt0<#oOO@%<,-*$%*558a   ",
" 2X=3yddp6:o##%:337qrq69rwqrw2#O$:><2:==*772647a  ",
" 5+&->>,>;-=%O*;28w4399w9:,55:%##;,<11<:;49624-6  ",
" i359,=-:0e8$o*:497%$>3w8$=::=;*%$O#%:,<<13<14,2  ",
"  i61800qr31&$*;,,,%O%<07$=-*;:;*#oooO#;,<,><<3y  ",
"   ay4:$$-&*-;*$%$%#OO:3*%**::;;&OXoX.O8ty1;:1y   ",
"    gp0@o11,-$$XXXXo::::%&$%-*#@#$-7<#:,3tiuip    ",
"    ha3@30tr<oXXOXo1iaaapp7ooXXXO*8yyr,<9<u       ",
"    i438tiau7XX&-2u        9=&&o&257rt:#<$y       ",
"   p12quitr0&#1usd         fssa8--;:2:=>#oqi      ",
"  d3@5qt0-><2ys                daaap7;-:=:<3tf    ",
"  f7,1&,$>ysd                       fa6&&0t01p    ",
"   s8<>,2u                            a5>3434a    ",
"                                       fp614i     ",
"                                                  ",
"                                                  ",
"                                                  ",
"                                                  ",
"                                                  ",
"                                                  ",
"                                                  ",
"                                                  ",
"                                                  ",
"                                                  ",
"                                                  ",
"                                                  ",
"                                                  ",
"                                                  ",
"                                                  ",
"                                                  "
};
