/* XPM */
static char *enemy_walk1710343725[] = {
/* columns rows colors chars-per-pixel */
"50 46 38 1 ",
"  c None",
". c #0F130D",
"X c #20261E",
"o c #262627",
"O c #272C24",
"+ c #2E3229",
"@ c #333832",
"# c #383D36",
"$ c #3D423A",
"% c #41463E",
"& c #474B45",
"* c #4E4F4B",
"= c #52544F",
"- c #585A54",
"; c #5D5F5A",
": c #63645F",
"> c #696B66",
", c #70726E",
"< c #767975",
"1 c #7D7F7A",
"2 c #858783",
"3 c #8B8E89",
"4 c #949690",
"5 c #9D9E9C",
"6 c #A1A4A0",
"7 c #A8A8A0",
"8 c #AEB0AC",
"9 c #B6B7B3",
"0 c #BBBCB9",
"q c #C5C6C4",
"w c #D0D1CE",
"e c #DADBD8",
"r c #E6E6E4",
"t c #F0F2EE",
"y c #F5F7F4",
"u c #FAFBF8",
"i c #FBFDF9",
"p c #FEFFFB",
/* pixels */
"                                                  ",
"                                                  ",
"                                                  ",
"                                                  ",
"                          wqqqwwe                 ",
"                          1$#$*-<0e    r0e        ",
"                          w%XXO%$&,0erq2@3        ",
"                        q06#Xo@#&%%*<3%@@2        ",
"                       t3$@OX+$@%%#@@#o&=2        ",
"                       t6#O$@@$#+@+oo@#;;2        ",
"                     086*XX@$&&$@@#O@&;<:>e       ",
"              w00090e3#+XXXOO#%&%$@@#*;-;&2e      ",
"             w>$%%$%34%O+O++XO@$%@+##$%$*:=,e     ",
"           yw>$%%&&%#@@$$#$#+XXO+O+$%*%#-,&@5     ",
"           w>$%%%%*&%%#$=---#OOXXO+$-;*$$-;%5     ",
"           3@#@$=&;;-%$;4774;#OOXX+&;=%#@#:>2e    ",
"  eq      q>@+$=;;155>>599902%XO@$%--%$@*>:,,2e   ",
"  0:q     2@++$->45364401>16,%+O%-;::=&#:51:1-<e  ",
"  9#;q   q>&#@%-26:@-,39*$*;&$$+@$#%=;-==><;>;$7  ",
"  9&&:5qq>*<*+$;>>&O#&28&#%$%&&$@OXX+#$%&==->->q  ",
"  8-<-#;>#><$+#$$%#O+@,2%@$%%&&$+XX%11112:&**>    ",
"  w1,1:&$=<;O+###%+OXX%@##$%&$@@+X$6     q332q    ",
"   w1<3<:<<%X@$$$$O.X:$+@$&%@XX+@&6               ",
"    w2-=-;<-X$&$#+..>w5%+#$@..O&38                ",
"     w2122q0$*;$%-+;w e&O$#X.XX=                  ",
"            ,=<>1,2e  e$#<%.X-.*                  ",
"            ,=3521w   e%,01O,3@4                  ",
"            ,=48:7i   e*6w8*96*e                  ",
"            1;7q>8    e*;<>*825t                  ",
"            2:9w<9    e*+&%*4,r                   ",
"            1;9w<9    e=$=*&1>ry                  ",
"            2;6q634e  e;@@@@&&16                  ",
"            q<4q9422wut7&=,22,%<5                 ",
"             q2<324-0  t7,549,-4,                 ",
"                                                  ",
"                                                  ",
"                                                  ",
"                                                  ",
"                                                  ",
"                                                  ",
"                                                  ",
"                                                  ",
"                                                  ",
"                                                  ",
"                                                  ",
"                                                  "
};
