/* XPM */
static char *enemy_walk_31710343726[] = {
/* columns rows colors chars-per-pixel */
"50 46 41 1 ",
"  c None",
". c #010100",
"X c #151812",
"o c #21271B",
"O c #252726",
"+ c #292E24",
"@ c #2F332A",
"# c #333831",
"$ c #393D36",
"% c #3E4239",
"& c #4B4B28",
"* c #42453F",
"= c #454A41",
"- c #474A45",
"; c #4D5149",
": c #545A49",
"> c #535650",
", c #595C54",
"< c #5F625D",
"1 c #62675F",
"2 c #696B66",
"3 c #70726E",
"4 c #777974",
"5 c #7F827C",
"6 c #888A86",
"7 c #90928E",
"8 c #979994",
"9 c #9EA19B",
"0 c #A5A5A4",
"q c #A8AAA7",
"w c #AFB1A9",
"e c #B9BBB6",
"r c #C8C9C5",
"t c #D2D4D0",
"y c #D9DBD7",
"u c #DFE1DE",
"i c #EAEAE8",
"p c #F3F5F2",
"a c #F8F9F7",
"s c #FBFBFA",
"d c white",
/* pixels */
"                                                  ",
"                                                  ",
"                                                  ",
"                                                  ",
"                                                  ",
"                                                  ",
"                                                  ",
"                           y099wwqy               ",
"                           r1+O#%-5qy    e0i      ",
"                           p8+oo#-*=50te7-$r      ",
"                         t76<oO##%****3;+--r      ",
"                         t2O#@O$$#*%#@@#@2<r      ",
"                         r<O#*$**#@$+o+$,4,r      ",
"                       751OO+#%-=*#$@O$,25>4yp    ",
"               y534438t5Oooo++O$*=*###%;;>-,5y    ",
"               5%##$$-41###@##o+@#$+@$%%%%<<-4u   ",
"              4---=%-*$$$%*=*$@ooo++@%:,*%,1-*t   ",
"             3$%**=-1;=*%:4441%+ooo+$;,:=%$,1;r   ",
"  7;q      y2+##%><>253-,7eee9<@oooo&,:%%##%245t  ",
"  2.@;    4*X@##=2150wq57q88ww1@o@;::1;%%#56<434  ",
"  4O$*---**--$O#=158117698-;24=#+@=;;:,,;*264,3*1u",
"  y448<%*;797#X$-265$@*107@#==%*%#@+++%;>>>2,,2;<y",
"   u6,58799>;$#**;;-#@#>85@#%%%=%#@oXo+*>>,-;,><  ",
"    ir4*+O@#$**$@##@@oo%<#o+$*;-@o+o+XX8uyr<%*>r  ",
"      ur<X$>,=@+XXX.X==>>$#O#=-#+o+%61$8i  yttyp  ",
"        t,O302X..XX@,     q-@*-$oo$3wew<e         ",
"          ;3rwO.#@%eu      8+#>;-$*,6rw4r         ",
"          ,4rw@*977        e<--286#,wr4wa         ",
"          ,4e6%874           q-,wr1o173r          ",
"       sr0<7r8*757           p6-69>X*2e           ",
"       p<$6rte%<8             e-+#$@8             ",
"       a7>wur737               e-#>;5             ",
"        i64655                  q>**$5y           ",
"        ai846                    e;;348ud         ",
"                                  55yr78u         ",
"                                  6>q003e         ",
"                                  e6eweqt         ",
"                                                  ",
"                                                  ",
"                                                  ",
"                                                  ",
"                                                  ",
"                                                  ",
"                                                  ",
"                                                  ",
"                                                  "
};
