/* XPM */
static char *_85dd617f9544086dac0f440057fec38E1hwYBRAYxUbLEuz[] = {
/* columns rows colors chars-per-pixel */
"51 50 126 2 ",
"   c None",
".  c #070603",
"X  c #050502",
"o  c #060603",
"O  c #070703",
"+  c #050502",
"@  c #050502",
"#  c #060602",
"$  c #050503",
"%  c #050502",
"&  c #050502",
"*  c #070603",
"=  c #050502",
"-  c #050502",
";  c #060603",
":  c #040502",
">  c #0C0905",
",  c #030402",
"<  c #060602",
"1  c #060603",
"2  c #060603",
"3  c #060603",
"4  c #150F07",
"5  c #060502",
"6  c #060603",
"7  c #060603",
"8  c #090804",
"9  c #040502",
"0  c #080703",
"q  c #150F09",
"w  c #050502",
"e  c #080703",
"r  c #2D1E0E",
"t  c #0A0804",
"y  c #090805",
"u  c None",
"i  c #070603",
"p  c #050503",
"a  c #0C0A04",
"s  c #070603",
"d  c #4B3016",
"f  c #070604",
"g  c #24180B",
"h  c #20160C",
"j  c #110D07",
"k  c #474664",
"l  c #060603",
"z  c #120D09",
"x  c #0C0A07",
"c  c #261A0B",
"v  c #0E0B04",
"b  c #1C130F",
"n  c #2B1E19",
"m  c #402A13",
"M  c #3F3D57",
"N  c #790721",
"B  c #774C22",
"V  c #794D22",
"C  c #080703",
"Z  c #744A21",
"A  c #100E0D",
"S  c #040401",
"D  c #714820",
"F  c #130E09",
"G  c #37241D",
"H  c #65411E",
"J  c #754B21",
"K  c #2B1C0C",
"L  c #0A0905",
"P  c #17110C",
"I  c #22170B",
"U  c #573818",
"Y  c #5C3B19",
"T  c #31211C",
"R  c #603E1E",
"E  c #30200E",
"W  c #34221C",
"Q  c #4E3217",
"!  c #462E1E",
"~  c #6C461F",
"^  c #68421C",
"/  c #100B07",
"(  c #0C0A08",
")  c #271A15",
"_  c #291C17",
"`  c #392512",
"'  c #8F561E",
"]  c #1B1410",
"[  c #805120",
"{  c #523518",
"}  c #25190B",
"|  c #492F15",
" . c None",
".. c #1D1309",
"X. c #402A1E",
"o. c #241814",
"O. c #5C3B1E",
"+. c #4B311E",
"@. c #7D4E20",
"#. c #8A541F",
"$. c #855220",
"%. c #412A13",
"&. c #51351F",
"*. c #24212C",
"=. c #2E1F19",
"-. c #95591E",
";. c #1E1A20",
":. c #AD7123",
">. c #161419",
",. c #57381F",
"<. c #56557C",
"1. c #2E2A3C",
"2. c #905F1F",
"3. c #CB9129",
"4. c #976220",
"5. c #A16720",
"6. c #454056",
"7. c #89591F",
"8. c #73481D",
"9. c #4E4D70",
"0. c #353248",
"q. c #C38230",
"w. c #63545F",
"e. c #D3AD2E",
"r. c #5E5D87",
"t. c #47704C",
/* pixels */
"                                                      + 3 S o <                                       ",
"                                              = 1 = ; 2 r | Y 4 2 2 = ; 1 5                           ",
"                                            6 t a 8 X q U 7.:.Q ..z 8 < a 1 6 $                       ",
"                                          + 0 c R g g H Z V [ 4.2.^ g g R c p O                       ",
"                                        = 2 r U 2.U | Z { Q B 5.5.V Y U Z { r v 5   $ & t +           ",
"                                      6 t q U 7.:.2.[ B K ..H #.' V ' -.@.V U > < $ = 3 e #           ",
"                                    + 0 c R D V $.5.:.-.E C P Y @.B V $.-.$.U > < 5 i o , #           ",
"                                  = 2 r Y :.4.$.V 2.4.#.E L ] u Q J B @.#.[ ^ %.4 0 q ( , #           ",
"                            O ; ; t q Y 5.3.:.' @.V B Z K F T I K H D B B B Z ^ u ..T P , #           ",
"                            % i w g H 4.5.7.[ $.-.[ B Z K F G ~ ^ I U V V V R ..Y 8.G P , #           ",
"                        $ & 4 ` ` Q B 2.4.#.@.@.#.@.V Z K F G O.R ` %.%.%.%.%.` Y R G P , #           ",
"                  $ 6 ; = y E Z V V B B [ -.$.V B  . .Z E P =.W ! D ` F F F E D +.W T q 9 O           ",
"                  + 0 w w d ~ B ' ' V B V @.' ' J ` E D ~ Q F ) ! Z [ @.^ @.[ B +._ j 2 ; $           ",
"      $ & 2 1 1 1 2 r ` ` H V B $.$.B B B B $.$.J } I D U %.` +.O.J $.' #.' #.B R +.` 4 < +           ",
"    + = y / F L S L U V B B B B B B B V V B B Z ^ K K H E E J V B B B [ -.$.B B B V B ` e 5 O         ",
"    % i d H R I S L U V B B B B B B V ' ' V V Y ..Q Q ..| 8.-.[ J B V V @.V B B J @.-.J d i &         ",
"+ & 4 ` 8.8.| P F ` H V B B B B B B B $.$.J { %.` H U / { [ ' 5.4.O.| { Z { | ,.2.:.' [ Y > X         ",
"# y K J -.^ L S K Z B J D J B B B B B Z Z Z K } D V U / Q Z V q.q.&.I } ^ E P +.:.3.[ Z U > X         ",
"# @ K Z [ U C S K Z V H ! ^ V B B B J &.&.D K } D V U ( =.&.V :.3.e.~ =.X.T R e.3.:.@.,.W > X         ",
"# @ K Z V { C S K Z V ~ &.| Q O. .V J O.,.,...} D V O.I ] u ,.^ 7.3.7.O.&.O.[ 3.2.^ O.W ] * X         ",
"# @ K Z Z Q C S K Z B B D } F G R D D D R X.F } D V H G F F T ] _ ^ #.'  .#.'  .u >.T P S * X         ",
"# @ K D &.=.C S K Z B B D } F W X.X.X.X.&.H } } D V H G F ( ;.k k I Y H I Y H I 6.9.;./ S * X         ",
"# @ K D ! o.C S I O.D B Z | E o.o.) ) T X.,.I } D V H G P A ;.<.<.A Q ^ ` R Y ( 9.r.;.] P * X         ",
"# @ K D ! o.C S F G H V B V U F A A A _ W T F } D V H G ] A ;.9.<.>.Q  .~  .{ >.9.<.;.=._ * X         ",
"# @ K D ! o.C S F G H V B B D R I L A P ] P L } D V H G ] A A *.0.<.1.......*.<.6.*.T W _ * X         ",
"# @ I ,.X.=.] L F G H V B B ^ | P C ( ( ( A C } D V ~ &.u ] A A *.<.*.L >.( ;.<.1.] W ! %.> X         ",
"O 9 q T W G W F F W H V B V U L S * a a f A C } ~ J B Z +._ A L A 1.>.>.1.>.>.1.>.F W R Y j X         ",
"$ = 2 j _ G W F C F U V B V U L S e % 5 1 o S P X.H V J +._ A L C A *.1.0.1.*.A o.=.G R Y j X         ",
"    < o ) G W F S L U V B V U > y 8 $   - o S ..+.,.H Z +._ ( ( L ( ;.*.*.*.;.] =.X.&.~ Y j X         ",
"    & 7 _ W W F S L { J B V { . &       - o S }  .+.+.~ +.) C ( A A L C C S F W W ! Z V Y j X         ",
"    # % e ] T F S C u &.J V U . &       - o S } Z  .O.! G ) C C L A A ( C S F W W ! Z V Y > X         ",
"      O y F T F S C ) +.Z H %.o &   + % l o L ..| ~ H G G ) * @ s > ( 7 p w F W ! O.Z Y m 4 :         ",
"      O y F =.q . C ) +.~ ! _ 7 -   O 3 L A A ( ( Q R G G ) o < % 7 f 3 6 9 / W R V J E , 6           ",
"      O y C j 1 2 * ) G X.] x % #   O s L A A A A P o.W G ) * < O : : = O 9 / W R V J E , #           ",
"    ; 8 w 7 0 = 5 4 b _ T F 3 +     + 8 @ > ( ( ( F ] W G n 4 :         + 9 / W &.H Z E , #           ",
"    < . o p #     # y F T F 3 O         - 7 f . C ) G G W h #           + 4 z T W ! D E e ; +         ",
"    < . 1 = $     + s ( P ( 3 O         # : : 1 o ) G W ] s O           $ = 8 z ) ! Z ^ d x -         ",
"    : l 5       ; t i ( A L 3 O               - . ) X.+...y O             $ = 0 b u O.D Y > X         ",
"    $ $ $       & f ( A A L 3 O               - . o.!  .E y ; +               O 4 z W R R j 8 O       ",
"                & o ( A A A 3 O               - o ( E Z ^ d @ %                 = 1 q { D Y r 0 O     ",
"                & o P ] > y 8 +               5 4 p h Q ~ H u 0 % +               : f Q V J E e #     ",
"                & o ) ) . &                   $ + # < . { V D K s O             + - q { V J E , #     ",
"                & o ) ) . -                     $ v w L { V Z K @ O           + 2 r Y  .B J E , #     ",
"            $ % l > ` ! u v : $               ; X i / E R V Z K @ O           + 9 I D V B J E , #     ",
"            O s L / U B D u 3 6 $             % 7 * I ^ D D ~ K @ O           + p I D B B J u x ; $   ",
"            O @ I Y D V V w.k y :             # - e L I I I I / @ O           + 9 I D V V V w.k y -   ",
"            + 2 h Q Q Q Q 6.M p 5               $ 1 , C S S S S w t ;         + 8 h Q Q Q Q 6.6.( t   ",
"              $ & a . f f . 9 #                   $ - 7 . . . . f 7 &           $ % 7 . f f f f a <   ",
"                6 % % % % % 5 $                     # % % % % % % % 6             # % % % % % % % 6   ",
"                                                                                                      "
};
