/* XPM */
static char * player__1__2_xpm[] = {
"44 61 235 2",
"  	c None",
". 	c None",
"+ 	c #08090A",
"@ 	c #0F1113",
"# 	c #1E2023",
"$ 	c #0E1012",
"% 	c #030406",
"& 	c #0F1011",
"* 	c #060709",
"= 	c #040607",
"- 	c #030506",
"; 	c #202326",
"> 	c #010305",
", 	c #1D1F21",
"' 	c #070A0C",
") 	c #010304",
"! 	c #131516",
"~ 	c #020406",
"{ 	c #060708",
"] 	c #26292C",
"^ 	c #35383B",
"/ 	c #41464A",
"( 	c #050607",
"_ 	c #080A0B",
": 	c #1A1B1E",
"< 	c #282B2F",
"[ 	c #4F4034",
"} 	c #816553",
"| 	c #5B4B3C",
"1 	c #1E2123",
"2 	c #2D3033",
"3 	c #3E4247",
"4 	c #191919",
"5 	c #977D65",
"6 	c #EABB97",
"7 	c #A9896F",
"8 	c #1C1D1D",
"9 	c #121416",
"0 	c #484F54",
"a 	c #B19173",
"b 	c #BAC0BB",
"c 	c #C6DDDC",
"d 	c #F1D0A3",
"e 	c #D8C5A9",
"f 	c #98BFC7",
"g 	c #44575E",
"h 	c #010203",
"i 	c #0D0E10",
"j 	c #1E2022",
"k 	c #373B3F",
"l 	c #101215",
"m 	c #181B1E",
"n 	c #634F41",
"o 	c #D3D7CB",
"p 	c #CCE7E4",
"q 	c #F8D6A8",
"r 	c #EFDAB7",
"s 	c #556E76",
"t 	c #0E1013",
"u 	c #1B1E21",
"v 	c #0B0C0E",
"w 	c #050608",
"x 	c #6C5948",
"y 	c #FAD1A2",
"z 	c #FED4A3",
"A 	c #71624F",
"B 	c #131212",
"C 	c #0E0F0F",
"D 	c #645645",
"E 	c #EEC399",
"F 	c #9F8C72",
"G 	c #1A1C1F",
"H 	c #0F1012",
"I 	c #212121",
"J 	c #E2B590",
"K 	c #F3CB9D",
"L 	c #EDC89C",
"M 	c #020304",
"N 	c #0A0C0D",
"O 	c #252525",
"P 	c #151617",
"Q 	c #C19D7D",
"R 	c #3C362F",
"S 	c #25292B",
"T 	c #D0AE88",
"U 	c #2F3032",
"V 	c #090A0B",
"W 	c #29231C",
"X 	c #A99474",
"Y 	c #B39775",
"Z 	c #16181A",
"` 	c #1D2023",
" .	c #2D3034",
"..	c #121241",
"+.	c #282B2D",
"@.	c #929894",
"#.	c #7E7E7E",
"$.	c #171A1C",
"%.	c #2A2A2A",
"&.	c #464B4F",
"*.	c #404548",
"=.	c #393126",
"-.	c #DCC296",
";.	c #C5B091",
">.	c #748389",
",.	c #191B1D",
"'.	c #786558",
").	c #C3A487",
"!.	c #2B231E",
"~.	c #E3C597",
"{.	c #CBB292",
"].	c #312A21",
"^.	c #C7B087",
"/.	c #B5A286",
"(.	c #15171A",
"_.	c #101111",
":.	c #090B0D",
"<.	c #38393A",
"[.	c #A4BCC8",
"}.	c #71797F",
"|.	c #010204",
"1.	c #141619",
"2.	c #050709",
"3.	c #205869",
"4.	c #1D687D",
"5.	c #071B23",
"6.	c #3D798D",
"7.	c #64818B",
"8.	c #425056",
"9.	c #282928",
"0.	c #606E77",
"a.	c #4AA9C7",
"b.	c #37C5EB",
"c.	c #0E3441",
"d.	c #0D2F3A",
"e.	c #34BFE3",
"f.	c #70DAFB",
"g.	c #B3E4F0",
"h.	c #8DA8B3",
"i.	c #76919C",
"j.	c #101213",
"k.	c #010102",
"l.	c #36C2EA",
"m.	c #55B8D7",
"n.	c #96BAC8",
"o.	c #9AC2CD",
"p.	c #9CCCDA",
"q.	c #A1C8D9",
"r.	c #96B8C5",
"s.	c #A3CDDA",
"t.	c #151719",
"u.	c #61727B",
"v.	c #0A2630",
"w.	c #2A95AD",
"x.	c #489AB2",
"y.	c #73919F",
"z.	c #ADDBEA",
"A.	c #B7EAFA",
"B.	c #99BCC7",
"C.	c #94B5C1",
"D.	c #ACD8E4",
"E.	c #010509",
"F.	c #041116",
"G.	c #253035",
"H.	c #96BDCD",
"I.	c #191C1E",
"J.	c #8C7B66",
"K.	c #807057",
"L.	c #4F4739",
"M.	c #A1C8D4",
"N.	c #3D6B79",
"O.	c #21778C",
"P.	c #538596",
"Q.	c #98BAC7",
"R.	c #99BBC7",
"S.	c #AFDDED",
"T.	c #688A98",
"U.	c #2D353A",
"V.	c #2FA3C0",
"W.	c #40D1FB",
"X.	c #ADDCEC",
"Y.	c #849BA5",
"Z.	c #8BA6B0",
"`.	c #A9D3E2",
" +	c #61A4BA",
".+	c None",
"++	c #76D2ED",
"@+	c #94E0F8",
"#+	c #B2E4F3",
"$+	c #AAD7E5",
"%+	c #8FACB8",
"&+	c #997A63",
"*+	c #88959C",
"=+	c #ABD7EA",
"-+	c #BAECFC",
";+	c #7ADFFE",
">+	c #56D0F3",
",+	c #86CEE5",
"'+	c #A5E5F9",
")+	c #ADEAFF",
"!+	c #9FDBEC",
"~+	c #3C4F57",
"{+	c #184250",
"]+	c #42C0E3",
"^+	c #58B2CE",
"/+	c #91E2FD",
"(+	c #233840",
"_+	c #06080A",
":+	c #1E4F5D",
"<+	c #2B6274",
"[+	c #ADDAE7",
"}+	c #30A8C8",
"|+	c #34373A",
"1+	c #78A4B2",
"2+	c #32B4D8",
"3+	c #3ACBF6",
"4+	c #A3CCD8",
"5+	c #373F43",
"6+	c #9FC6D4",
"7+	c #5FC4E5",
"8+	c #ACD6E6",
"9+	c #37C2ED",
"0+	c #0C303D",
"a+	c #3FD3FF",
"b+	c #4BCCF5",
"c+	c #83CEE6",
"d+	c #15181A",
"e+	c #7F949D",
"f+	c #383B3F",
"g+	c #81C7DC",
"h+	c #424649",
"i+	c #34383B",
"j+	c #36393C",
"k+	c #5393A6",
"l+	c #5A8393",
". . . . . . . . . . . . . . . . . . . . . . . . . . . . . . . . . . . . . . . . . . . . ",
". . . . . . . . . . . . . . . . . . . . . . . . . . . . . . . . . . . . . . . . . . . . ",
". . . . . . . . . . . . . . . . . . . . . . . . . . . . . . . . . . . . . . . . . . . . ",
". . . . . . . . . . . . . . . + @ # . . . . . . . . . . . . . . . . . . . . . . . . . . ",
". . . . . . . . . . . . . . . $ % & . . . . . . . . . . . . . . . . . . . . . . . . . . ",
". . . . . . . . . . . & * % % = % - % % * . . . . . . . . . . . . . . . . . . . . . . . ",
". . . . . . . . . . # ; % - > - - - > - * # , . . . . . . . . . . . . . . . . . . . . . ",
". . . . . . . . . # ' % ) - - - - - - - % = ! . . . . . . . . . . . . . . . . . . . . . ",
". . . . . . . . . # ~ > - - - - - - - > > { ] ^ / . . . . . . . . . . . . . . . . . . . ",
". . . . . . . . . # ~ - - - > - ( ( - > > - _ : < . . . . . . . . . . . . . . . . . . . ",
". . . . . . . . . # ~ - - > ( [ } } | ( > { 1 2 3 . . . . . . . . . . . . . . . . . . . ",
". . . . . . . . . # ~ - > _ 4 5 6 6 7 8 _ _ 9 3 # . . . . . . . . . . . . . . . . . . . ",
". . . . . . . . . 0 ~ - > [ a b c d e f g h i j k . . . . . . . . . . . . . . . . . . . ",
". . . . . . / l l m % > > n 6 o p q r p s h % t ; . . . . . . . . . . . . . . . . . . . ",
". . . . . . u v w w - > > x d y q z z q A { @ . 0 . . . . . . . . . . . . . . . . . . . ",
". . . . / 9 t B C C C C - D E y z z z z F * < . . . . . . . . . . . * l . . . . . . . . ",
". . . . G H _ 8 8 8 I 4 ( n J K z z y K L . . . . . . . . . . . . . M N . . . . . . . . ",
". . . ! ~ w ( _ _ C I O P A K E 6 6 Q A R - S . . . . . . . . . * M % ) M ! . . . . . . ",
". . . $ H ( > > > - 8 I 4 D T J J 6 7 O C { $ U , . . . . . . . V H w { H $ . . . . . . ",
". . . & u H > - - - ( { ( C W X q z Y C - - % B ; . . . . . . . Z ` ~ H  .... . . . . . ",
". . . . k +.@ - - - - - - > { A X X A { > - > v ] ^ U . . . . . . . - I F @.#.. . . . . ",
". . . 0 # / $.{ - - - - - - - 8 %.I P - - - - ( _ 1 &.. . . # *.#.#.M =.-.;.>.. . . . . ",
". . . . k ] @ - - - - - - - - 8 %.I P - - - - - > 1 *.. . . G ,.'.).!.=.~.{.>.. . . . . ",
". . . . G H > > - - - - - - - 8 %.I P - - - - - > j S # # ; 9 { x Q ].].^./.>.. . . . . ",
". . . . S i > - - - - - - - - 8 %.I P - - - - - > w @ + (._.:.- B W _ _ W <.[.. . . . . ",
". . }.! $.:.> > % * |.- - - - 8 %.I P - - - - - - > ) V 9 :.> > > h > > h N * 1.l U . . ",
". . / j ( - - - 2., ~ > - - - 8 %.I P - - - - - - - - { { - - - > > > > > { w { % (.. . ",
". , $ i > > % ' G , ~ > - - - 8 %.I P - > { t * |.> - - > > ) N 3.4.5.5.4.6.7.8.V & . . ",
". ` % ( - - % . . # * _ - - { 8 9.I P - > w m U % { - - - _ * 0.a.b.c.d.e.f.g.h.i.[.#.i.",
". Z u j.> > % k.* . G $ |.C I O 9.I P - > w 1.0 ! ,.( > |.$ G 0.a.l.c.d.e.m.n.o.p.q.r.s.",
". . &.+.t.{ > > ' & . Z ) B %.%.9.I 4 _ ( w 1.. . <.t.t.,.& . u.a.l.c.v.w.x.y.z.A.B.C.D.",
". . # 3  .H > - |.% G Z ) B %.%.%.%.O 8 C w 1.. . / k < ; # . 0.a.b.c.E.F.G.0.z.A.g.z.H.",
". . . . k ] I.( > _ J.).K.L.4 4 4 9.O 8 C _ 1.. . . [.B.M.M.B.0.N.O.4.4.4.P.Q.R.o.o.R.M.",
". . . . }.}.$ % ) C Q y d 5 { > { O O 8 B C 1.. . . q.p.g.g.S.T.U.5.V.W.W.f.A.X.y.#.X.g.",
". . . . . . ..+ - C a T | ].- - - C C _ : ^ k . . . }.Y.Z.Z.Q.`. +.+++@+@+p.#+$+S.q.%+Z.",
". . . . . . . . V _.&+5 B h > - - > > - { * 0 . . . *+*+0 . =+-+;+>+,+s.'+o.y.z.A.=+. 0 ",
". . . . . . . . U Z B B ( - > > - > - - h k., . . . . . . . . . )+!+~+{+]+^+y.z.A.=+. . ",
". . . . . . . . . # ~ h - - - @ ~ w > - > k., . . . . . . . =+S./+,+(+d.e.a.y.`.$+q.. . ",
". . . . . . . . . , ~ > - - { 2 ` i > - - k., . . . . . . . X.A.f.e.c.c.e.a.>.. 0 . . . ",
". . . . . . . . Z _+% - - > { 2 ` i > - - k., . . . . . . . X.A. +:+O.O.3.<+}.. . . . . ",
". . . . . . . . ' > - - > _ B <.` i > - - k., . . . . . . . X.[+s v.}+}+F.$ . i.i.[.. . ",
". . . . . . . . ' - - - h j |+k ` i > - - k., . . . . . . . q.1+x.2+3+}+5.$ *+4+D.=+. . ",
". . . . . . . . ' - - - - ,.U . ` i > - - k., . . . . . . . %+C.m.3+V.O.F.5+B.o.4+=+. . ",
". . . . . . . . ' - - - ( 1 *.. ` i > - - k., . . . . . 0 . X.g.f.l.{+_ E.s g.S.y.*+. . ",
". . . . . . . . ' - > H +.<.U . ` i > - - k., . . . . . =+M.6+R.7+l.c.5.4. +A.#+. . . . ",
". . . . . . . . ' - > j.< }.0 . ` i > - ) % 0 . . . . , 8+[+S.}.9+2+d.d.e.f.A.X.q.*+. . ",
". . . . . . . . ' - > j.; . . . ` i > - N Z . . . . . . >.@.Y.. 0+d.F.c.e.a+8+$+z.=+. . ",
". . . . . . Z G M - > j.; . . . ` i > - _+. . . . . . . 0 . . . 0+d.F.c.e.b+H.$+S.=+. . ",
". . . . . . u :.w - > @ ; . . . ` i > - ' . . . . . . . . . . . 9+2+c.d.e.f.A.#+[.0 . . ",
". . . . . . $ { > { B @ , . . . ` i > - ' . . . . . . . q.S.#+. a+3+P.P.++c+$+8+. . . . ",
". . . . . . $ { > w l . . . . . ; _.{ - ' . . . . . . . 8+[+z.T.b+W.@+g.A.o.>.. . . . . ",
". . . . . . u { > w l . . . . . , G G { _+. . . . . . . q.n.h.s.!+@+s N.>+^+>.. . . . . ",
". . . . &.|+G { v t.l . . . . . . . 1.{ d+ .3 . . . . . . U e+[+[+s.g :+  x.>.. . . . . ",
". . . . S : _ > N f+&.. . . . . . . @ { _ P m . . . . . . , T.r.r.Y.f f 1+T.}.. . . . . ",
". . *.^ G v > > V . . . . . . . . . @ { > { d+^ / . . . . . . . . i.g+c+H.. . . . . . . ",
". . / j _ ( ( ( 2.. . . . . . . . . @ _ - ( { t.< . . . . . . . . i.  ]+T.. . . . . . . ",
". . &.h+i+i+i+i+|+. . . . . . . . . f+j+i+i+i+5+3 . . . . . . . . T.k+k+l+. . . . . . . ",
". . 0 }.}.}.}.}.*+. . . . . . . . . *+}.}.}.}.}.0 . . . . . . . . # }.}., . . . . . . . ",
". . . . . . . . . . . . . . . . . . . . . . . . . . . . . . . . . . . . . . . . . . . . ",
". . . . . . . . . . . . . . . . . . . . . . . . . . . . . . . . . . . . . . . . . . . . ",
". . . . . . . . . . . . . . . . . . . . . . . . . . . . . . . . . . . . . . . . . . . . "};
