/* XPM */
static char *_c2ba3e9ca874858ddd3ae52ea4454f7A7EcgjuOobVddZBl[] = {
/* columns rows colors chars-per-pixel */
"28 55 256 2 ",
"   c None",
".  c #6CD9FB",
"X  c #95CEEF",
"o  c #1F8DE1",
"O  c #B7E0F1",
"+  c #23D3FF",
"@  c #208BE0",
"#  c #D4DBEF",
"$  c #4DDAFD",
"%  c #B6D6ED",
"&  c #3D9EE5",
"*  c #9FDBF3",
"=  c #2A93E1",
"-  c #2C43BE",
";  c #5FD0F7",
":  c #7BC5EE",
">  c #42D9FF",
",  c #228FE1",
"<  c #B1D0EC",
"1  c #71C4F0",
"2  c #45A1E5",
"3  c #33B8F1",
"4  c #95CEEF",
"5  c #5CAFE8",
"6  c #4BA4E5",
"7  c #238FE1",
"8  c #1F92E2",
"9  c #2289E1",
"0  c None",
"q  c #47D9FE",
"w  c #263AAA",
"e  c #2C44C3",
"r  c #5DB1E9",
"t  c #71CEF4",
"y  c #2C43C0",
"u  c #2A92E1",
"i  c #2B41B9",
"p  c #2B44BE",
"a  c #8BC5EC",
"s  c #84C8EF",
"d  c #56B2EA",
"f  c #2395E4",
"g  c #3F9DE3",
"h  c #75C3EE",
"j  c #80BFEB",
"k  c #6AB5EA",
"l  c #89D0F3",
"z  c #8CD5F5",
"x  c #44D0FA",
"c  c #A2D6F3",
"v  c #2C43BD",
"b  c #98DFF7",
"n  c #2C4BC4",
"m  c #2F48CD",
"M  c #389BE3",
"N  c #67DEFC",
"B  c #2C43BF",
"V  c #8AD7F4",
"C  c #59BBED",
"Z  c #8ECAEF",
"A  c #6BB9EB",
"S  c #6BCEF4",
"D  c #304AD3",
"F  c #81C2EC",
"G  c #40A1E5",
"H  c #86C4ED",
"J  c #41A0E5",
"K  c #3D9CE2",
"L  c #37C8F8",
"P  c #2E96E3",
"I  c #54CFF8",
"U  c #4CA3E5",
"Y  c #9ECDEE",
"T  c #40D7FE",
"R  c #1F9CE6",
"E  c #57DAFD",
"W  c #6FBCEB",
"Q  c #9ED3EF",
"!  c #5AD1F7",
"~  c #7EC9F1",
"^  c #98CFEF",
"/  c #293EB1",
"(  c #2C43BC",
")  c #4ED2FA",
"_  c #67DCFB",
"`  c #2B41B9",
"'  c #60B1E7",
"]  c #62AFE7",
"[  c #2A40B6",
"{  c #5EB9EC",
"}  c #2940B5",
"|  c #26D4FF",
" . c None",
".. c #83DAF8",
"X. c #49A6E6",
"o. c #5CD4F9",
"O. c #2A7BE0",
"+. c #2992E1",
"@. c #7FD8F5",
"#. c #304AD2",
"$. c #2E48CB",
"%. c #B1D2EB",
"&. c #2A92E1",
"*. c #32A0E6",
"=. c #74D7F8",
"-. c #2E45C8",
";. c #2691E1",
":. c #3FD1FC",
">. c #2B64D5",
",. c #5EB7EB",
"<. c #30D5FE",
"1. c #7DDAF9",
"2. c #7ED0F3",
"3. c #ACD6F2",
"4. c #47D9FD",
"5. c #2D98E3",
"6. c #43D8FD",
"7. c #64D5F8",
"8. c #62D0F6",
"9. c #7AC3EE",
"0. c #4549FF",
"q. c #248DBD",
"w. c #3450E0",
"e. c #24379C",
"r. c #1F8DE0",
"t. c #2C43BD",
"y. c #1D2D80",
"u. c #344FE0",
"i. c #23369A",
"p. c #314DD7",
"a. c #23D3FF",
"s. c #2E52D2",
"d. c #273CAB",
"f. c #3351E0",
"g. c #2D63E1",
"h. c #334FDF",
"j. c #208BE0",
"k. c #25D4FF",
"l. c #3350DF",
"z. c #2870E1",
"x. c #208FE1",
"c. c #1F2F87",
"v. c #263AA6",
"b. c #21ADEF",
"n. c #304AD2",
"m. c #3157E1",
"M. c #2E68E4",
"N. c #22C2F8",
"B. c #24D5FF",
"V. c #267AE2",
"C. c #32D5FF",
"Z. c #2088E1",
"A. c #3254E1",
"S. c #45D8FD",
"D. c #1DEDEC",
"F. c #172364",
"G. c #2183E0",
"H. c #2776DF",
"J. c #22A9E7",
"K. c #2C7DE4",
"L. c #28A1F2",
"P. c #263CA9",
"I. c #1B2A79",
"U. c #2539A3",
"Y. c #162261",
"T. c #2941B7",
"R. c #2E49CC",
"E. c #213394",
"W. c #2DD4FF",
"Q. c #2C66E1",
"!. c #20C7F0",
"~. c #1FD4E8",
"^. c #21B6E6",
"/. c #1E92E3",
"(. c #54ABE8",
"). c #21BFF5",
"_. c #1D2E85",
"`. c #20318E",
"'. c #29D4FF",
"]. c #24379E",
"[. c #36D5FE",
"{. c #15215F",
"}. c #24A0EB",
"|. c #315DE2",
" X c None",
".X c #2E73E5",
"XX c #1FDCE9",
"oX c #1FE7F3",
"OX c #21CAE9",
"+X c #1742B2",
"@X c #1B2A78",
"#X c #17256A",
"$X c #2B42BB",
"%X c #283DB2",
"&X c #2892E1",
"*X c #1F97E4",
"=X c #2438A0",
"-X c #4AA8E7",
";X c #1DF2ED",
":X c #1FDFF3",
">X c #2994EB",
",X c #2D6DE3",
"<X c #1EE9ED",
"1X c #54B2EB",
"2X c #23BCF0",
"3X c #2580E2",
"4X c #1FE4EC",
"5X c #1C2B7C",
"6X c #20B2F1",
"7X c #334EDE",
"8X c #21ABED",
"9X c #3BD6FD",
"0X c #3052D7",
"qX c #23CDFC",
"wX c #23C5E8",
"eX c #26B4F3",
"rX c #4ED8FC",
"tX c #30D0FD",
"yX c #21D2F6",
"uX c #21E3F8",
"iX c #1CF6EC",
"pX c #5CAFE8",
"aX c #4DA3E5",
"sX c #213291",
"dX c #1F99E5",
"fX c #27A4E3",
"gX c #2D5FDE",
"hX c #34A8E9",
"jX c #324AD8",
"kX c #22CAF5",
"lX c #21DAF5",
"zX c #216EB3",
"xX c #26ABEC",
"cX c #23D0FB",
"vX c #24B6F4",
"bX c #20D0ED",
"nX c #44D2FB",
"mX c #223597",
"MX c #4BB1EB",
"NX c #28CFFD",
"BX c #72CEF3",
"VX c #26A5EC",
"CX c #235CB0",
"ZX c #258BCF",
"AX c #2C88EB",
"SX c #28DBFB",
"DX c #23C1E4",
"FX c #20D3F3",
"GX c #1FC2E8",
"HX c #31ECF2",
"JX c #51E4F1",
"KX c #56C3F0",
"LX c #2CB300",
"PX c #210009",
"IX c #00084B",
"UX c #47704C",
/* pixels */
"            # b N $ $ $ $ $ b #                         ",
"          O 4 ..9XC.C.C.C.[._ *                         ",
"            $ [.k.a.a.a.a.a.[.E C s %                   ",
"            L tX| '.NXqXk.a.k.tXhXW Y                   ",
"            : ) N t MX8XN.qXk.a.N.*.5 h                 ",
"            % l F ] &Xx./.b.cXuXyX8 7 2 s < O           ",
"            { -Xu = r.r.r.x.VX:XD.J.o P d 5 h           ",
"        O z M , 8 r.r.r.r.V.g.>X<X:X0 , x.U a %         ",
"          A  Xo o r.G.z.z.|.u.|.bXiXbX/.@ g F X         ",
"        h t  Xr.r.G.g.f.f.w.w.m.>X:X<XJ.o 7 (.z         ",
"        G -X&Xr.G.g.f.w.w.w.w.h.A.>X<XeXV.j.& 5 .       ",
"        G &.7 G.g.w.w.w.w.l.7Xn.jXz.D.2Xz.r.x.g         ",
"      : J K @ Q.m.A.w.w.7X#.$.- -.>.~.4X}.j.@ 6 a %     ",
"      Y (., 9 .Xb.>XA.u.n.p i - i p ZX4XL.H.@ u k Q X   ",
"    % j & /.vXkXD.^.m.7XR.t.t.T.v.=XzXDXM.Q.Z.x.1XnX=.O ",
"    : 6 ;.R yX;XwX,Xf.D y t.T.v.e.i.zX^.m.A.z.j.1X9XI 1 ",
"  2.,.2 8 2XD.OX,Xw.7Xm  .$XP.e.e.i.CXj.0Xu.A.V.1X[.tXL ",
"  X (.o R FX4X.Xu.w.n.t.- $Xv.e.e.e.=Xv.$Xl.m.V.1X[.a.+ ",
"  X (.x.2X;XXXM.u.w.n.t.t.T.U.e.i.E.E.E.%Xl.z.j.-XtXa.+ ",
"  4 (.x.).D.xX|.u.7XR.t.t.P.e.i.sX_.y.y.v.l.Q.G.f N.a.+ ",
"% ~ & x.!.lX.Xu.w.p.s.t.t.P.e.i._.y.y.y.v.l.f.H./.N.a.+ ",
"X 9.& 0 XXxX|.u.w.p.s.B ( P.i.`.y.y.y.@X].7Xf.H./.N.a.+ ",
"# Q pXOXD.K.u.w.w.p.s.v / U.i.c.y.y.I.#X@X$Xf.H./.N.a.+ ",
"  ^ KX4XD.K.u.w.w.p.s.t.d.e.i.c.y.5X#XY.Y.].w.V.8XqXa.+ ",
"  ^ JXiXJ.|.u.w.w.p.s.t.d.e.i.c.y.@XF.Y.Y.=Xl.V.).k.'.+ ",
". E HX4XK.u.w.w.w.p.s.t.d.e.i.c.y.I.F.Y.Y.].l.V.).k.! z ",
". > oXGXM.u.w.w.w.p.s.t.d.e.i.c.y.I.F.Y.F.U.l.V.).'.8.< ",
"O > uX^.g.u.w.w.w.p.s.t.d.e.i.c.y.I.F.{.c.n.l.V.).'.; # ",
"7.q cX0 g.u.w.w.w.p.s.t.d.e.i.c.y.I.F.{.E.l.f.3XN.'.; # ",
"S.'.6Xx.g.u.w.w.w.p.s.t.d.e.i.c.y.@XF.{.E.h.f.L.a.'.; # ",
"! W.b.j.g.u.w.w.w.p.s.t.d.e.i.`.y.5X#X{.E.h.f.L.B.'.; # ",
"BX[.b.j.g.u.w.w.w.p.s.t.d.e.e.mX_.y.I.#Xi.h.f.L.B.'.; # ",
"S.k.b.j.g.u.w.w.w.p.s.t.d.e.e.i._.y.y.5Xv.h.f.L.B.'.; # ",
"S.k.b.j.g.u.w.w.w.p.s.t.d.e.e.i._.y.y.y.v.h.f.L.B.<.1.# ",
"S.k.b.j.g.u.w.w.w.p.s.t.d.e.e.i.`.y.y.y.v.l..X!.SX:.< O ",
"S.k.b.r.H.m.u.w.w.p.s.t.d.e.e.e.i.sX`.`.%Xl.VXiX!.& j # ",
"S.k.8Xr.Z.gXf.w.w.p.s.t.T.U.e.e.e.e.e.e.T.K.XX<XJ.U Z # ",
"S.'.3 8 @ M.AXg.A.p.s.t.t.P.e.e.e.e.e.P.n.fX~.J.f 2 #   ",
"~ T nX5.9 ,XvXOXJ.0XR.t.t.d.e.e.e.e.e.%XK.XX^.j.= J     ",
"# > rXW  Xz.eXuXOXm.R.t.- i v.e.e.e.e.T.fX~.*Xr.-Xr     ",
". > q l & G.K.yX~.M.n.t.t.- [ w =Xe.d.H.~.^.r.x.d *     ",
". > q c aXG.M.2X;X^.0XB y t.p ` %XU.w O.}.3X@ u d :     ",
". > q c aXZ.g.K.D.wXm.D y t.t.t.v } w n H.Z.@ g a %     ",
". 6.4.c aXr.3X,X!.OXM.7XR.t.t.t.n m jXgXZ.r.&X6         ",
"  x x 3.k , 9 z.J.4X}.u.n.e e R.p.7XA.z.j.r.(.4         ",
"    % %.H 6 9 j.}.:X~..Xh.n.p.h.A.g.z.Z.r.r.(.X         ",
"    O < O A  Xr.*X!.;XwXM.h.w.u.m.G.r.r.r. X5 1         ",
"          S M , j.0 lXoXeXM.f.Q.z.Z.r.r.7 2 '           ",
"          O K +.r.*X8X!.oX}.z.Z.r.r.r.r.P x O           ",
"          < j pXx.o r.dX!.kX6XdXr.r.j.&X3 I 1           ",
"            : Z X.= r.r.6Xa.a.).*Xf hX3 W.[.o.s         ",
"                H k = = 3 k.a.a.N.N.W.'.k.rXV X         ",
"                * l r r C T k.a.a.a.a.k.S.@.* #         ",
"                        # t 9XW.C.C.W.rXV 4             ",
"                          1 $ $ $ $ $ S *               "
};
