/* XPM */
static char *_1601f71510140fdf91314fb8fa437fdWKM1XOMLmAb8dva1[] = {
/* columns rows colors chars-per-pixel */
"47 91 155 2 ",
"   c None",
".  c #C50707",
"X  c #D24141",
"o  c #910101",
"O  c #C71313",
"+  c #C32A2A",
"@  c None",
"#  c #DC9B9B",
"$  c #E5BEBE",
"%  c #C50A0A",
"&  c #CB2A2A",
"*  c #950F0F",
"=  c #940909",
"-  c #C60E0E",
";  c #A22D2D",
":  c #D27575",
">  c #C91C1C",
",  c #D69F9F",
"<  c #C06666",
"1  c #981212",
"2  c #A43232",
"3  c #B63333",
"4  c #D66161",
"5  c #CE3939",
"6  c #B15353",
"7  c #AB3F3F",
"8  c #9A1818",
"9  c #C91717",
"0  c #C81919",
"q  c #D99C9C",
"w  c #991414",
"e  c #971313",
"r  c #C67D7D",
"t  c #F8EFEF",
"y  c #961010",
"u  c #950C0C",
"i  c #9C1010",
"p  c #CC4B4B",
"a  c #A22B2B",
"s  c #B04A4A",
"d  c #D48D8D",
"f  c #DCB2B2",
"g  c #920303",
"h  c #D46A6A",
"j  c #CA1E1E",
"k  c #9F2626",
"l  c #9F1B1B",
"z  c #C81818",
"x  c #961010",
"c  c #9C1E1E",
"v  c #C41515",
"b  c #A01C1C",
"n  c #940C0C",
"m  c #CC2525",
"M  c #C71111",
"N  c #C70F0F",
"B  c #D13E3E",
"V  c #BD5757",
"C  c #B55A5A",
"Z  c #A32D2D",
"A  c #B86161",
"S  c #930E0E",
"D  c #D07373",
"F  c #CB2626",
"G  c #D55757",
"H  c #A93E3E",
"J  c #B33737",
"K  c #C81414",
"L  c #D89393",
"P  c #BB6D6D",
"I  c #C37E7E",
"U  c #E05454",
"Y  c #9E0D0D",
"T  c #D03E3E",
"R  c #910000",
"E  c #C91414",
"W  c #A63939",
"Q  c #A63939",
"!  c #BA0F0F",
"~  c #CF3535",
"^  c #AC4A4A",
"/  c #ED0A0A",
"(  c #D65858",
")  c #B00C0C",
"_  c #750000",
"`  c #910000",
"'  c #3D0000",
"]  c #4D0000",
"[  c #C40000",
"{  c #290000",
"}  c #900000",
"|  c #160000",
" . c None",
".. c #740000",
"X. c #520000",
"o. c #4B0000",
"O. c #460000",
"+. c #8F0000",
"@. c #7A0000",
"#. c #3B0000",
"$. c #8B0000",
"%. c #C50000",
"&. c #720000",
"*. c #BF0000",
"=. c #930000",
"-. c #770000",
";. c #920404",
":. c #2C0000",
">. c #800000",
",. c #400000",
"<. c #C20000",
"1. c #AE0000",
"2. c #FB0000",
"3. c red",
"4. c #BB0000",
"5. c #230000",
"6. c #5A0000",
"7. c #B80000",
"8. c #880000",
"9. c #7D0000",
"0. c #E60000",
"q. c #960000",
"w. c #990000",
"e. c #830000",
"r. c #AB0000",
"t. c #860000",
"y. c #A60101",
"u. c #F10000",
"i. c #A10000",
"p. c #620000",
"a. c #9E0000",
"s. c #CD0000",
"d. c #D30101",
"f. c #F50000",
"g. c #D70000",
"h. c #180000",
"j. c #650000",
"k. c #F90000",
"l. c #360000",
"z. c #300000",
"x. c #B50000",
"c. c #560000",
"v. c #600000",
"b. c #C90000",
"n. c #D00000",
"m. c #EC0000",
"M. c #DC0000",
"N. c #9B0000",
"B. c #500000",
"V. c #6B0000",
"C. c #DF0000",
"Z. c #E20000",
"A. c #1F0000",
"S. c #150000",
"D. c #47704C",
/* pixels */
"                        q X X X X X X X X X X 4 #                                             ",
"                        L j . - - - - - - - . B , $                                           ",
"                      p B N [ [ [ [ [ [ [ [ [ j T d                                           ",
"                      z [ [ [ [ [ [ [ [ [ [ [ [ @ G 4 A :                                     ",
"                      z [ [ [ [ [ [ [ [ [ [ [ [ [ - ! w V                                     ",
"                      m O O O O E v r.*.%.[ [ [ [ [ 4.r.Z 6 #                                 ",
"                                3 b =.x.*.*.<.[ [ [ [ <.a.a r ,                               ",
"                        $ # $ < u o ` q.q.w.4.%.[ <.<.<.a.= c W                               ",
"                        f C C ^ 1 ` ` ` } ` y.x.%.g.C.M.y.+.` Z 6 #                           ",
"                    $ f I c ` ` } ` ` ` ` ` } i.*.m.2.2.x.` ` ;.u * 3 3 $                     ",
"                    t P c ;.` ` ` ` ` ` ` ` ` $.t.4.C.2.s.r.` ` g y y Z q                     ",
"                $ f P k } ` ` ` ` ` ` ` ` } 8.9._ q.*.2.0.b.y.q.` ` +.k q                     ",
"                  r 1 } ` ` ` ` ` } +.+.+.$.@..._ &.a.k.3.m.%.i.} ` } k d #                   ",
"                $ r 1 ` ` ` ` ` ` t.@.@.@.@._ _ _ &.` n.u.2.u.1.+.` ` = y i                   ",
"                  r 1 } ` ` ` } 8.9..._ _ _ _ _ _ ..t.r.g.u.2.*.N.` ` ` } S                   ",
"              $ t L 1 } ` ` } $.-._ _ _ _ _ _ _ _ _ _ -.r.d.2.g.x.` } ` } l , $               ",
"              t C k ;.` ` ` t.@._ _ _ _ _ _ _ _ _ _ _ _ e.r.k.g.1.>.8.` ` x 2 :               ",
"              t 2 } ` ` +.$.9..._ _ _ _ _ _ _ _ ..V.V._ &.N.k.Z.4.-.t.` ` } 8 <               ",
"              t 2 ` ` ` $.-._ _ _ _ _ _ _ _ ....&.c.6.&.&.N.k.3.M.@.t.` ` ` 8 <               ",
"              # 2 ` ` t.9._ ...._ _ _ _ _ &.v.6.c.B.B.6.c.9.d.f.m.1.w.` ` } 8 <               ",
"            q D a ` ` e._ t.t.t.-._ _ _  .V.X.o.o.] ] o.o.j.y.Z.u.%.a.$.} } w I d $           ",
"            r c ;.` ` >.9.x.<.7.>..._ _ j.] ] ] ] ] ] ] ] ] c.b.u.%.} @.+.` ;.1 H             ",
"            A 1 } q.1.r.1.C.m.M.t..._ _ j.] ] ] ] ] o.,.,.,.O.%.0.q.9.@.+.` ` ;.; h v &       ",
"        $ < s = } w.*.b.g.k.f.g.e..... .v.] ] ] ] o.O.' ' ' ,.[ C.-...@.$.+.` ;.; 4 N O       ",
"        # 2 = ` } w.*.C.2.3.*.9._ _ &.c.] ] ] ] o.,.' ' ' ' ,.[ C.@._ _ _ t.` ;.; 4 - O       ",
"        $ 2 ` ` i.x.C.f.f.4.` .._ _ &.X.o.] ] o.,.' ' ' ' ' ,.1.%.@._ _ _ 9.e.} ; 4 - K ~ 3   ",
"      , A Z ` ` 1.s.k.f.g.>.&._ _ &.V.X.] ] ] O.' ' ' ' ' ' ' $.i. .&._ _ ..@.} ; 4 - [ % +   ",
"      7 w = ` } r.s.k.4.9._ _ _ _ j.B.] ] ] ] O.' ' ' ' ' ' ' O.O.,.p._ _ ..@.+.; 4 - [ % +   ",
"      7 = } q.y.b.0.2.x.&._ _ _ _ p.o.] ] ] ] O.' ' ' ' ' ' ' ' #.' v._ _ 9.t.;.; 4 - [ % +   ",
"      7 = } w.*.0.3.k.x.&._ _ _ _ p.] ] ] ] o.O.' ' ' ' #.#.#.#.#.#.v._ _ t.` ;.Q D - [ % +   ",
"      7 = } w.*.0.k.d.a.&._ _ _ _ p.] ] ] o.,.' ' ' ' #.z.:.:.:.:.:.6._ _ t.` ` 1 w *.[ % +   ",
"      7 = } w.*.0.u.y.8..._ _ &.j.c.] ] ] o.,.' ' ' #.z.:.{ { { { { 6._ _ 9.t.} } w.*.[ % +   ",
"    # W = } N.<.0.0.>..._ _ _ e.X.o.] ] ] o.,.' ' ' l.{ { { { { { { 6._ _ ..@.+.` w.*.[ % +   ",
"  # e o ;.+.i.m.C.<.9._ _ _ _ e.X.] ] ] ] o.,.' ' ' l.{ { { { { { { 6._ _ _ @.+.` w.*.[ % +   ",
"  # H a ;.N.x.k.b.N.@._ _ _ _ e.X.] ] ] ] o.,.' #.l.z.{ { { { { { 5.c._ _ _ @.+.` w.*.[ % +   ",
"    # 7 = 1.d.k.1.&._ _ _ _ _ e.X.] ] ] o.o.,.' #.:.{ { { { { { 5.h.B.&._ _ @.+.` w.*.[ % +   ",
"      7 = b.f.3.1.&._ _ _ _ _ e.X.] ] ] O.,.' ' #.:.{ { { { { A.h.| 5.#. ._ @.+.} w.*.[ % +   ",
"      7 y.g.3.3.1.&._ _ _ _ _ e.X.] ] ] O.' ' ' #.:.{ { { { 5.h.| | S.{  ._ @.+.w.y.*.[ % +   ",
"      X . 0.3.k.r.&._ _ _ _ _ e.X.] ] ] O.' ' ' #.:.{ { { 5.| | | | | :. ._ @.+.1.[ [ [ % +   ",
"      X / k.m.i.e..._ _ _ _ _ e.X.] ] ] O.' ' ' #.:.{ { { 5.| | | | | :. ._ @.+.1.%.[ [ % +   ",
"  $ 4 U 3.f.g.9..._ _ _ _ _ _ e.X.] ] ] O.' ' ' #.:.{ { { 5.| | | | | :. ._ @.+.1.%.[ % 0 3   ",
"  # 0 d.2.M.x.@._ _ _ _ _ _ _ e.X.] ] ] O.' ' ' #.:.{ { { 5.| | | | | :. ._ @.+.1.%.[ z # $   ",
"  # 0 n.2.%.q.-._ _ _ _ _ _ _ e.X.] ] ] O.' ' ' #.:.{ { { 5.| | | | S.{  ._ @.+.1.%.[ z       ",
"  # 0 n.2.4.8.-._ _ _ _ _ _ _ e.X.] ] ] O.' ' ' #.:.{ { { 5.| | | | 5.#. ._ @.+.1.%.[ O       ",
"  # 0 n.2.4.8.-._ _ _ _ _ _ _ e.X.] ] ] O.' ' ' #.:.{ { { 5.| | | h.B.&._ _ @.+.1.%.[ O       ",
"  $ 0 b.M.1.$.-._ _ _ _ _ _ _ e.X.] ] ] O.' ' ' #.:.{ { { 5.| | | h.X.-._ _ @.+.1.%.[ O       ",
"3 J M <.4.i.$.-._ _ _ _ _ _ _ e.X.] ] ] O.' ' ' #.:.{ { { 5.| | | h.X._ _ _ @.q.1.[ [ O       ",
"m % @ 7.q.=.$.-._ _ _ _ _ _ _ e.X.] ] ] O.' ' ' #.:.{ { { 5.| | | h.X._ _ ..e.7.<.[ [ O       ",
"& . [ 7.=.` $.-._ _ _ _ _ _ _ e.X.] ] ] O.' ' ' #.:.{ { { 5.| | | h.X._ _ ..e.*.%.[ [ O       ",
"X > . 7.=.` $.-._ _ _ _ _ _ _ e.X.] ] ] O.' ' ' #.z.{ { { 5.h.| | h.X._ _ ..e.*.[ [ [ O       ",
", h M 7.=.` $.-._ _ _ _ _ _ _ e.X.] ] ] O.' ' ' ' #.l.{ { { 5.h.| | X._ _ ..e.*.[ [ [ O       ",
"h ~ > 7.=.` $.-._ _ _ _ _ _ _ e.X.] ] ] O.' ' ' ' ' l.{ { { { 5.A.A.c._ _ ..e.*.[ [ [ O       ",
"& N %.7.=.` $.-._ _ _ _ _ _ _ e.X.] ] ] O.' ' ' ' ' l.{ { { { { { { 6._ _ ..e.*.[ [ [ O       ",
"& . %.7.=.` $.-._ _ _ _ _ _ _ e.X.] ] ] O.' ' ' ' ' l.{ { { { { { { 6._ _ ..e.*.[ [ [ O       ",
"& . %.7.=.` $.-._ _ _ _ _ _ _ e.X.] ] ] O.' ' ' ' ' l.{ { { { { { { 6._ _ ..e.4.[ . v &       ",
"& . %.7.=.` $.-._ _ _ _ _ _ _ e.X.] ] ] O.' ' ' ' ' l.{ { { { { { { 6._ _ -.t.<.%.% <         ",
"& . %.7.=.` $._ _ _ _ _ _ _ _ e.X.] ] ] O.' ' ' ' ' #.l.:.{ { { { { 6._ _ w.*.m.g.% :         ",
"& . %.7.=.` $.>.@._ _ _ _ _ _ e.X.] ] ] O.' ' ' ' ' ' ' z.z.z.z.z.z.6._ ..1.Z.2.d.) b J       ",
"& . %.7.=.` ` ` >..._ _ _ _ _ e.X.] ] ] O.' ' ' ' ' ' ' ' ' ' ' ' ' v.-.@.b.3.2.*.} 1 ;       ",
"& . %.7.=.` ` ` >......._ _ _ e.X.] ] ] o.O.,.' ' ' ' ' ' ' ' ' ' ' v.$.g.u.k.g.r.w 6 d       ",
"& . [ ! a w ` ` >.-.$.>..._ _ e.X.] ] ] ] o.,.' ' ' ' ' ' ' ' ' ,.] j.=.k.m.d.x.a.y +         ",
"& - [ > f 2 ` ` >.>.4.w._ -._ e.X.] ] ] ] o.,.' ' ' ' ' ' ' ' #.o. ...=.f.4.} ` ` y +         ",
"< p K > q 2 ` ` >.>.4.s.d.d.i.e.X.o.] ] ] o.,.' ' ' ' ' ' ' ' #.o.&.1.M.2.4.+.` } x +         ",
"  $ 0 > q b n g >.>.4.M.f.3.4. .6.X.] ] ] o.,.,.' ' ' ' ' ' ' #.o...n.2.Z.1.+.` x 2 :         ",
"  # 9 > :   * o >.>.4.%.s.k.4.&...p.] ] ] ] o.O.' ' ' ' ' ' ' #.o...n.0.N.` ` ;.H , $         ",
"  # 9 > :   * o $.t.+.r.s.k.7.&._ p.] ] ] ] ] o.O.,.' ' ' ' ' X.9.b.u.0.q.` ` ;.;             ",
"  # 9 > :   * o ` $._ a.s.k.%.$.@.p.] ] ] ] ] ] o.,.,.,.' ' ' p.q.u.m.n.q.` ` ;.;             ",
"  # 9 > :   * o ` $._ a.s.f.2.0.t.v.o.] ] ] ] ] ] o.o.o.,.' ' p.$.<.q.>.+.` ` ;.;             ",
"  # 9 > :   * o ` $._ t.i.u.3.u.8.V.p.B.o.] ] ] ] ] ] ] O.,.' o.j.` $.t.} ` w ; J             ",
"  # 9 > :   * o ` $.@._ e.Z.2.u.8...&.6.B.] ] ] ] ] ] ] ] o.O.O.B._ 8.` ` ` 8 < #             ",
"  # 9 > :   * o ` } +.>.>.*.0.u.t.&...&.p.] ] ] ] ] ] o.o.c. . .-.$.} ` ` ` 8 <               ",
"  # ( G ,   * o ` ` ` >.@.i.d.f.r.$._ _ j.o.] ] ] o.X.v.v.j..._ 9.} ` ` ;.a 6 ,               ",
"    $ $     * u R ` ` e.@.$.<.u.d.y..._ j.B.] ] B.B.6._ _ _ _ _ 9.} ` ` ;.6   $               ",
"              3 e ` ` +.$.+.1.n.u.4.&._ &.V.X.c. . . ._ _ .._ t.+.` ` ` ;.6                   ",
"                i e R ` ` } r.b.f.C.r.>.....p.j._ _ _ _ 9.e.e.$.` ` ` ` ;.6                   ",
"                  * o ` ` } y.%.u.2.u.` -._ _ _ _ _ _ _ 8.` ` ` ` ` ` ;.1 6                   ",
"                  * o ` ` ` q.a.%.Z.k.<.w.&..._ _ _ .._ 8.` ` ` ` ` } 8 V :                   ",
"                  + e y ` ` } q.4.d.0.M.%.y.>..._ 9.>.>.$.` ` ` ` ;.u Q ,                     ",
"                      e ` ` ` q.4.<.%.u.2.f.` _ -.$.` ` ` ` ` ` ` ;.S                         ",
"                      e ` ` ` ` w.N.i.%.Z.k.i.8.$.+.` ` ` ` ` ` ` ;.S                         ",
"                      l Y g ` ` } } =.r.b.0.1.i.i.q.` ` ` ` ` ` o n b i $                     ",
"                      $ * x ;.` ` ` ` } y.[ <.<.<.a.` ` ` ;.g ;.u 3 v M 3 $                   ",
"                        # i n ` ` ` ` } y.[ [ [ <.4.r.} } n i i l 0 % . M p                   ",
"                        $   l u g ` ` } y.[ [ [ [ %.7.a.a.Y m m E @ [ N F p                   ",
"                              h 8 ;.;.;.y.@ [ [ [ [ <.<.<.<.@ @ @ [ [ F d #                   ",
"                            $ , p s s s s G j <.[ [ [ [ [ [ [ [ [ @ B V #                     ",
"                              $ $ $       f B j [ [ [ [ [ [ [ [ . F D # $                     ",
"                                          $ q U N @ @ @ @ @ @ @ K h , $                       ",
"                                              r 5 5 5 5 5 5 5 5 p #                           ",
"                                                                                              ",
"                                                                                              "
};
