/* XPM */
static char *ecdbd11b790c465be063fceb54ea5762PonKNvpmHRVeYQ1C[] = {
/* columns rows colors chars-per-pixel */
"47 91 203 2 ",
"   c None",
".  c #2CD4FF",
"X  c None",
"o  c #57DBFC",
"O  c #B1CEE9",
"+  c #4DDAFE",
"@  c #24D3FF",
"#  c #77CEF3",
"$  c #2BD4FE",
"%  c #2691E1",
"&  c #30D5FE",
"*  c #B1E2F8",
"=  c #7DC3ED",
"-  c #2F96E2",
";  c #52DCFD",
":  c #22D2FF",
">  c #2BD4FF",
",  c #3999E3",
"<  c #ABDCF3",
"1  c #5CDCFC",
"2  c #70C3EE",
"3  c #87CAEF",
"4  c #B5D6F1",
"5  c #5BABE5",
"6  c #50B2EA",
"7  c #2A92E1",
"8  c #2A92E1",
"9  c #3698E2",
"0  c #238EE0",
"q  c #31D5FE",
"w  c #3C99E2",
"e  c #218EE0",
"r  c #439EE4",
"t  c #429EE4",
"y  c #38D7FF",
"u  c #2E94E1",
"i  c #29D4FF",
"p  c #4FDBFE",
"a  c #2CD2FE",
"s  c #50A5E5",
"d  c #2992E1",
"f  c #399BE3",
"g  c #33D3FD",
"h  c #8DC4ED",
"j  c #39D6FD",
"k  c #64AEE5",
"l  c #63AFE7",
"z  c #2D94E1",
"x  c #53A6E5",
"c  c #2D98E3",
"v  c #9FD5EE",
"b  c #6FCCF5",
"n  c #55DBFD",
"m  c #4EA4E5",
"M  c #379DE4",
"N  c #7CE2FC",
"B  c #67AFE6",
"V  c #6BE0FA",
"C  c #48D8FC",
"Z  c #7EE1FA",
"A  c #4CDAFF",
"S  c #3598E2",
"D  c #3497E1",
"F  c #37D6FF",
"G  c #1D8CDF",
"H  c #77B7E8",
"J  c #459FE2",
"K  c #3497E1",
"L  c #46D9FF",
"P  c #63ADE4",
"I  c #36ABEB",
"U  c #35D6FF",
"Y  c #3596E1",
"T  c #3FD8FE",
"R  c #3296E2",
"E  c #4AD8FB",
"W  c #2FD4FF",
"Q  c #389BE3",
"!  c #1B88DE",
"~  c #3798E1",
"^  c #31CCF9",
"/  c #25A4E9",
"(  c #2FFDEA",
")  c #35F2EF",
"_  c #3450E0",
"`  c #24379C",
"'  c #1F8DE0",
"]  c #2C43BD",
"[  c #24D3FF",
"{  c #1D2D80",
"}  c #1E8CE0",
"|  c #344FE0",
" . c None",
".. c #1E8EE1",
"X. c #162261",
"o. c #2E47C9",
"O. c #2A40B6",
"+. c #24389E",
"@. c #2F5EE1",
"#. c #3352E0",
"$. c #3255E1",
"%. c #24D6FF",
"&. c #344DE0",
"*. c #237EE0",
"=. c #23CFFD",
"-. c #1F8AE0",
";. c #233599",
":. c #2C44BF",
">. c #324CD9",
",. c #1BFFE8",
"<. c #263CAA",
"1. c #23D2FE",
"2. c #20318D",
"3. c #1C2C7E",
"4. c #263AA7",
"5. c #1F90E1",
"6. c #20A5EA",
"7. c #1B2B7B",
"8. c #324EDD",
"9. c #1CFCE9",
"0. c #26D3FF",
"q. c #209BE7",
"w. c #172365",
"e. c #20E3F6",
"r. c #2B41BB",
"t. c #2579E0",
"y. c #213393",
"u. c #2F6DE4",
"i. c #1DF6ED",
"p. c #2D46C6",
"a. c #286DE0",
"s. c #2B66E0",
"d. c #1F8BE0",
"f. c #1D2D83",
"g. c #1EEDF1",
"h. c #1FD4E6",
"j. c #1EF3EF",
"k. c #304AD3",
"l. c #3064E3",
"z. c #20C5F1",
"x. c #22D3FF",
"c. c #315AE1",
"v. c #15215F",
"b. c #27AFF5",
"n. c #2F49CD",
"m. c #22BFF7",
"M. c #2539A1",
"N. c #21AFEF",
"B. c #2186E1",
"V. c #3351E0",
"C. c #1DF3E8",
"Z. c #17256A",
"A. c #2C45C2",
"S. c #1F99E5",
"D. c #26B4F7",
"F. c #23CCFC",
"G. c #20A0E9",
"H. c #21C2E6",
"J. c #1FDAE7",
"K. c #23C3F8",
"L. c #1CF9E8",
"P. c #3450E1",
"I. c #1F94E4",
"U. c #22B6EE",
"Y. c #22B9F3",
"T. c #2182E0",
"R. c #1FE8F5",
"E. c #3252E0",
"W. c #29A3F3",
"Q. c #21DEFA",
"!. c #2E75E8",
"~. c #1EE8E7",
"^. c #1E2E85",
"/. c #1F308A",
"(. c #3450E2",
"). c #2B97E4",
"_. c #22A7E2",
"`. c #2874E1",
"'. c #22D7FB",
"]. c #2C7CE3",
"[. c #21C8E6",
"{. c #2B88E3",
"}. c #283DB0",
"|. c #2C82EA",
" X c #1EDFE9",
".X c #1DEBEB",
"XX c #192772",
"oX c #208EC1",
"OX c #21D9F2",
"+X c #2B8AED",
"@X c #22D1F6",
"#X c #269DE5",
"$X c #20B2E4",
"%X c #2A98EF",
"&X c #2D54D1",
"*X c #15215E",
"=X c #2472C1",
"-X c #2F5FDA",
";X c #268FEA",
":X c #249AD1",
">X c #1E00E5",
",X c #00BFE0",
"<X c #47704C",
/* pixels */
"                                                                                              ",
"                        * Z ; ; ; ; ; ; ; ; ; 1 <                                             ",
"                      O < L i > > > > > > > > y Z                                             ",
"                      C A y x.[ [ [ [ [ [ [ x.& L N                                           ",
"                      g 0.[ [ [ [ [ [ [ [ [ [ [ [ A 1 l k                                     ",
"                      g 0.[ [ [ [ [ [ [ [ [ [ [ [ & ^ ).c * O                                 ",
"                      6 q q q q q a N.K.[ [ [ [ [ x.=.U.I x 2                                 ",
"                                v H % N.F.F.=.[ [ [ [ %.N.0 w =                               ",
"                          * * < r ).' 5.I.I.Y.%.[ [ [ [ N.X 0 z                               ",
"                        # H P P ~ } ' ' } } G.Y.=.Q.R.R.U.d.' u z <                           ",
"                      # k u ' X ' ' ' ' ' ' } I.K.e.9.,.[.5.' ' 0 w 2 2 =                     ",
"                      f d e ' ' ' ' ' ' ' ' ' B.l.W.e.9.e.m.I.} X d d D l                     ",
"                  * 9 K ' X ' ' ' ' ' ' ' ' *.a.V.!.N.C.j.e.N.q.' ' } % B                     ",
"                  = 8 ' ' ' ' ' ' } -.-.-.-.s.| _ &.l.~.,.L.Q.U.} ' ' % B < O                 ",
"                  = 8 ' ' ' ' ' ' T.@.@.@.@.$._ _ | l.@Xg.,.i.H.d.' ' X S x #                 ",
"                  # 8 ' ' ' ' ' *.a.V.| | | _ _ _ | c.%Xz.j.,.h.G.5.' ' } r #                 ",
"                # 3 u ' ' ' } -.s.| _ _ _ _ _ _ _ _ _ | +X'.L.g.F.S.d.' ' r 3 *               ",
"                f t 7 ' ' ' T.@.$._ _ _ _ _ _ _ _ _ _ | @.|.~.g.F.!.a.' ' 7 t w               ",
"                9 ' ' ' } T.a.V._ _ _ _ _ _ _ _ _ >.>.8.&.@.~.j.@Xl.s.' ' } % s               ",
"                9 X ' ' -.s._ _ _ _ _ _ _ _ _ | | n.A.>.&.@.~.,.C.u.s.' ' ' % s               ",
"                9 X ' *.s.$.&.&.| _ _ _ _ _ k.p.o.A.] p.p.&Xz.j.L.Y.G.' ' ' % s               ",
"            = 6 z X ' t._ l.u.u.c.| _ _ 8.>.p. . .] ]  . .A.#Xh.9.Q.N.*.-.' X Y = O           ",
"            4 t e ' ' t.E.W.=.F.!.&._ _ >.A.] ] ] ] ] ] ] ] :.:X9.Q.W.$.*.' ' 0 R # O O       ",
"            4 , } ' N.b.W.OXg.g.{.&._ P.>.:.] ] ] ] r.<.4.4.4.oXC.%Xu.E.*.' ' ' - = j q *     ",
"          2 B S } 5.m.%.Q.i.L.J.].&._ 8.k.:.] ] ] r.}.+.` ` ;.oXC.u.&.E.`.B.' ' - = $ $ #     ",
"          5 7 X } ..m.Q.L.,.h.l.$._ _ n.] ] ] ] ] <.` ` ` ` ;.oXC.u.&._ #.s.} ' - = $ $ #     ",
"          5 X } S.U.OXj.,.H.{.#._ _ _ o. .] ] r.<.M.` ` ` ` ;.oXOXu.| _ | c.a.T.- = a y n 6   ",
"      # 6 x X } 6.1.j.L. X].&._ _ | >.o. .] ] O.+.` ` ` ` ` ` =XU.-X>._ _ | V.*.- = a [ [ :   ",
"      3 t % ' d.G.1.i.h.l.$._ _ _ >.A.] ] ] ] O.+.` ` ` ` ` ` M.<.M.r._ _ | V.*.- = a [ @ :   ",
"      3 , } ' 6.z.R.9.[.#.| _ _ _ >.] ] ] ] ] O.+.` ` ` ` ` ` ` ` ;.O._ | c.a.B.- # a [ @ :   ",
"      3 , } 5.K.e.,.9.[.#._ _ _ _ >.:.] ] ] r.O.+.` ` ` ;.;.;.;.;.;.O._ | s.' ' u h $ [ @ :   ",
"      3 , } 5.K.e.9.R.b.#._ _ _ P.>.:.] ] ] <.+.` ` ` ` 2.f.^.^.^.f.4._ | s.' ' e Q K.[ @ :   ",
"      3 , } 5.K.e.L.U.|.V._ _ _ k.n.] ] ] ] <.` ` ` ;.y.^.{ { { { 3.4._ | @.`.B.' ..m.[ @ :   ",
"    4 h S } 5.K.e.C.].&._ _ _ _ o.@.] ] ] ] <.` ` ` ;.f.{ { { { { 3.4._ _ _ #.*.' 5.m.[ @ :   ",
"    5 Q % } 5. Xg.'.!.&._ _ _ _ o.@.] ] ] ] <.` ` ` ;.f.{ { { { { 3.4._ _ _ #.*.' 5.m.[ @ :   ",
"  O b t 7 I.6..X XW.l.| _ _ _ _ o.@.] ] ] ] <.` ` y.2.{ { { { { 3.XX+.P._ _ #.*.' 5.m.[ @ :   ",
"    * v , 6.'.i.H.#._ _ _ _ _ _ o.@.] ]  .r.<.` ` 2.{ { { { { 3.7.X.y.>.8._ #.*.' 5.m.[ @ :   ",
"    O 3 , $Xi.,.H.#._ _ _ _ _ _ o.@.] ] O.4.+.` ` 2.{ { { { { XXw.X.Z.^.n.P.#.*.' ' m.[ @ :   ",
"      3 I H.,.,.H.#._ _ _ _ _ _ o.@.] ] O.+.` ` ` 2.{ { { 3.7.Z.X.X.X.w.p.(.#.*.I.6.K.[ @ :   ",
"    O 3 T e.,.9.H.#._ _ _ _ _ _ o.@.] ] O.+.` ` ` 2.{ { { 7.w.X.X.X.X.Z.p.(.#.*.6.1.[ [ @ :   ",
"      3 ) i.L.#Xu._ _ _ _ _ _ _ o.@.] ] O.+.` ` ` 2.{ { { 7.w.X.X.X.X.Z.p.(.#.*.6.1.[ [ 1.:   ",
"    Z V ( 9..X`.&._ _ _ _ _ _ _ o.@.] ] O.+.` ` ` 2.{ { { 7.w.X.X.X.X.Z.p.(.#.*.6.1.[ > U C   ",
"    + & i.g.F.u.&._ _ _ _ _ _ _ o.@.] ] O.+.` ` ` 2.{ { { 7.w.X.X.X.X.Z.p.(.#.*.6.1.[ $ 2 *   ",
"    + %.i. XG.l.| _ _ _ _ _ _ _ o.@.] ] O.+.` ` ` 2.{ { { 7.w.X.X.X.X.w.p.(.#.*.6.1.[ $ #     ",
"    + %.i.h.-.@.| _ _ _ _ _ _ _ o.@.] ] O.+.` ` ` 2.{ { { 7.w.X.X.X.Z.f.o.P.#.*.6.1.[ $ #     ",
"    + %.i.h.-.@.| _ _ _ _ _ _ _ o.@.] ] O.+.` ` ` 2.{ { { 7.w.X.X.v.y.>.8._ #.*.6.1.[ $ #     ",
"    p 0.e.z.-.@.| _ _ _ _ _ _ _ o.@.] ] O.+.` ` ` 2.{ { { 7.w.X.X.v.y.P._ _ #.*.6.1.[ $ #     ",
"# o n 0.F.N.-.@.| _ _ _ _ _ _ _ o.@.] ] O.+.` ` ` 2.{ { { 7.w.X.X.v.y._ _ _ #.B.N.1.[ $ #     ",
"o W > =.G.5.-.@.| _ _ _ _ _ _ _ o.@.] ] O.+.` ` ` 2.{ { { 7.w.X.X.v.y._ _ _ $.b.=.[ [ $ #     ",
"o . x.=.q.} -.@.| _ _ _ _ _ _ _ o.@.] ] O.+.` ` ` 2.{ { { 7.w.X.X.v.y._ _ _ $.D.%.[ [ $ #     ",
"2 $ . F.q.} -.@.| _ _ _ _ _ _ _ o.@.] ] O.+.` ` ` 2.f.{ { 3.Z.X.X.v.y._ _ _ $.D.%.[ [ $ #     ",
"O # g F.q.} -.@.| _ _ _ _ _ _ _ o.@.] ] O.+.` ` ` ;.y.f.{ { 3.XXv.*Xy._ _ _ $.D.%.[ [ $ #     ",
"= F q F.q.} -.@.| _ _ _ _ _ _ _ o.@.] ] O.+.` ` ` ` ;.f.{ { { 7.XXZ.` _ _ _ $.D.%.[ [ $ #     ",
"o . x.=.q.} -.@.| _ _ _ _ _ _ _ o.@.] ] O.+.` ` ` ` ;.f.{ { { { { 3.4._ _ _ $.D.%.[ [ $ #     ",
"o . [ =.q.} -.@.| _ _ _ _ _ _ _ o.@.] ] O.+.` ` ` ` ;.f.{ { { { { 3.4._ _ _ $.D.%.[ [ $ #     ",
"o . x.=.q.} -.@.| _ _ _ _ _ _ _ o.@.] ] O.+.` ` ` ` ;.f.{ { { { { 3.4._ _ _ $.D.%.0.$ j *     ",
"o . [ =.q.} -.@.| _ _ _ _ _ _ _ o.@.] ] O.+.` ` ` ` ;.^.{ { { { { 3.4._ _ #.c.D.%.i F         ",
"o . [ =.q.} -.@.&._ _ _ _ _ _ _ o.@.] ] O.+.` ` ` ` ` ;./.{ { { { 3.4._ &.!.D..Xg.i ;         ",
"o . [ =.q.} d.a.@._ _ _ _ _ _ _ o.@.] ] O.+.` ` ` ` ` ` y./././././.<._ &.|.e.L..XY.c w O     ",
"o . [ =.q.} ' ' t.V._ _ _ _ _ _ o.@.] ] O.+.` ` ` ` ` ` ` ` ` ` ` ;.O._ #.).9.,.J.5.% - #     ",
"o . [ =.S.} ' ' t._ &.&._ _ _ _ o.@.] ] r.O.4.` ` ` ` ` ` ` ` ` ` ;.O.$.$X~.,.R.z.% x h *     ",
"o . x.@ - G ' ' t.#.u.u._ _ _ _ o.@.] ] ] ] <.` ` ` ` ` ` ` ` ` ` <.A.c.J.C.J.z.N.e f         ",
"o . 0.> 1 ! X ' t.$.b.b.$.#.#._ o.@.] ] ] ] <.` ` ` ` ` ` ` ` ` M.k._ @.J.h...' ' e f         ",
"< b A > 1 ! ' ..t.$.b.@X[.[._.$.o.@.] ] ] ] <.` ` ` ` ` ` ` ` ` M.k.].[.C.h.' ' ' X f         ",
"    + & 1 w D 7 t.$.b.Q.i.,.h.$.n.A.] ] ] ] }.M.` ` ` ` ` ` ` ` M.k.).,.~.H.' ' 7 D w         ",
"    + & 1 O 2 G t.$.b.x.%.j.h.$.| >.] ] ] ]  .O.+.` ` ` ` ` ` ` M.k.).L._.' ' ' 8 2 #         ",
"    + & 1   # G B.t.].%X1.j.h.$.| >.:.] ] ] ] r.}.4.` ` ` ` ` }.n._.J.L._.d.' ' - #           ",
"    + & 1   < u ' d.@.!.1.j.J.`.c.>.:.] ] ] ] ] ] }.M.M.+.` ` r.@.J..Xh.S.} ' ' - #           ",
"    + & 1   4 , } d.@.!.1.j.9.C.{.>.] ] ] ] ] ] ]  .r.r.<.` ` r.c.m.W.@.T.' ' ' - #           ",
"    + & 1   4 , } d.@.@.+XJ.,.9.{.8.k.A. .] ] ] ] ] ] ] O.<.` 4. .].|.`.B.' X R 9 *           ",
"    + & 1   4 , } d.s.$.V.H.9.9.{.&._ n.:.] ] ] ] ] ] ] ] r.<.4.<.&Xa...' ' % s               ",
"    + & 1   4 , } ' -.`.E.b.e.L.{.&._ 8.>.:.] ] ] ] ] ]  .:.k.>.8.*.-.' ' ' % s               ",
"    C j o   4 , } ' ' t.E.;Xz.L.U.|.#._ >.:.] ] ] ] :.n.n.k.8.P.$.T.' ' ' d z k               ",
"            4 m 7 ' ' *.c.t._.C.R.Y.$._ >.A.] ] :.A.p.8._ _ _ E.c.T.' ' ' r *                 ",
"            < h 5 X ' -.B.-.G.'.g.h.$.&.| 8.o.:.>.8.8._ | | &.s.B.d.' ' ' r =                 ",
"          O O   6 J 0 ' ' } G.=.j.~._.u.&._ k.n.8._ _ | @.a.a.t.' ' ' ' } r =                 ",
"                  = 8 ' ' } q.F.g.9.,.).$.V._ _ _ _ _ | a...' ' ' ' ' ' % J #                 ",
"                  = 8 ' ' ' 5.S.z.e.9.OXW.$.&._ _ | | &.a.' ' ' ' ' ' % 5 k                   ",
"                  # M u ' ' ' ' Y.'.g.R.@X+Xl.| | @.s.s.t.' ' ' ' ' d K 6                     ",
"                      9 X ' ' ' Y.=.=.g.i.'.+XV.E.`...' ' ' ' ' ' } c                         ",
"                      9 ' ' ' ' S.q.q.z.e.i.$X*.*.B.' ' ' ' ' ' ' ' c                         ",
"                    O l m 7 ' ' } } } 6.z.g.z.6.6.S.} ' ' ' ' ' e 8 M F 2                     ",
"                      = 4 - ' ' ' ' ' } S.=.[ 1.1.N.' ' ' ' e e 0 6 j & b                     ",
"                        O 6 M X } ' ' } S.F.[ [ [ F.Y.5.d.0 Y w f a . 0.W + #                 ",
"                            h m 7 ' ' } S.F.[ [ [ [ F.6.G./ g ; g . x.0.y n =                 ",
"                            = 4 t X % X #X=.0.[ [ [ [ 1.1.1.@ @ @ [ [ & N < O                 ",
"                              * b 5 5 5 5 V U x.[ [ [ [ [ [ [ [ [ x.T V v                     ",
"                                            + y i [ [ [ [ [ [ [ 0.y n #                       ",
"                                            < ; > 0.0.0.0.0.0.[ & N < O                       ",
"                                              2 j E p p p p p E p v                           ",
"                                                                                              "
};
