/* XPM */
static char *e993fabe154c48cae71b60e9a483c270KeYjrCVpkSHd95i6[] = {
/* columns rows colors chars-per-pixel */
"28 55 224 2 ",
"   c None",
".  c #A83434",
"X  c #C53A3A",
"o  c #DC9797",
"O  c #F4DFDF",
"+  c #E8C2C2",
"@  c #C71414",
"#  c #ECC8C8",
"$  c #C32828",
"%  c #C60707",
"&  c #E6BDBD",
"*  c #750000",
"=  c #C50202",
"-  c #AD2424",
";  c #350000",
":  c #D68E8E",
">  c #C71919",
",  c None",
"<  c #DEA0A0",
"1  c #A02424",
"2  c #670000",
"3  c #B04343",
"4  c #9F1717",
"5  c #AD3A3A",
"6  c #DFAAAA",
"7  c #790000",
"8  c #E7C7C7",
"9  c #AC0404",
"0  c #BC5C5C",
"q  c #C54242",
"w  c #D07474",
"e  c #CF5454",
"r  c #9D1C1C",
"t  c #AE4343",
"y  c #A11D1D",
"u  c #4F0000",
"i  c #D49696",
"p  c #C57878",
"a  c #550000",
"s  c #740000",
"d  c #750000",
"f  c #D28989",
"g  c #B75151",
"h  c #9D2020",
"j  c #B24B4B",
"k  c #E4BBBB",
"l  c #B85353",
"z  c #D27878",
"x  c #CC7979",
"c  c #B14646",
"v  c #C51111",
"b  c #C16969",
"n  c #E9CACA",
"m  c #EFDBDB",
"M  c #D19292",
"N  c #C93030",
"B  c #C16767",
"V  c #D89898",
"C  c #C91D1D",
"Z  c #C43838",
"A  c #BB4242",
"S  c #DB9D9D",
"D  c #C01616",
"F  c #D17F7F",
"G  c #AB3F3F",
"H  c #C25555",
"J  c #C10D0D",
"K  c #C96262",
"L  c #C82626",
"P  c #BF1616",
"I  c #DA9B9B",
"U  c #C40000",
"Y  c #C91616",
"T  c #A91919",
"R  c #C52323",
"E  c #DEA6A6",
"W  c #D05050",
"Q  c #CE3838",
"!  c #CE3B3B",
"~  c #CB8888",
"^  c #E2BCBC",
"/  c #BA5C5C",
"(  c #500000",
")  c #C87F7F",
"_  c #E2BCBC",
"`  c #A62E2E",
"'  c #950D0D",
"]  c #520000",
"[  c #6B0000",
"{  c #6D0000",
"}  c #6B0000",
"|  c #DEAFAF",
" . c None",
".. c #DEB6B6",
"X. c #570000",
"o. c #D39494",
"O. c #620000",
"+. c #E3B5B5",
"@. c #420000",
"#. c #6C0000",
"$. c #CD0000",
"%. c #970000",
"&. c #650000",
"*. c #BD6868",
"=. c #9C1313",
"-. c #B75252",
";. c #C81919",
":. c #C16868",
">. c #5D0000",
",. c #930C0C",
"<. c #D57474",
"1. c #D99E9E",
"2. c #A42B2B",
"3. c #9D1212",
"4. c #AD0000",
"5. c #CA2323",
"6. c #790000",
"7. c #BB6262",
"8. c #C50505",
"9. c #DC8787",
"0. c #A12525",
"q. c #D75E5E",
"w. c #D46565",
"e. c #CF7D7D",
"r. c #C83E3E",
"t. c #D15959",
"y. c #D04D4D",
"u. c #D51D1D",
"i. c #CF4C4C",
"p. c #ED1717",
"a. c #DA9797",
"s. c #780000",
"d. c #750000",
"f. c #4C0000",
"g. c #750000",
"h. c #3D0000",
"j. c #910000",
"k. c #780000",
"l. c #290000",
"z. c #6B0000",
"x. c #C30000",
"c. c #420000",
"v. c #7A0000",
"b. c #160000",
"n. c #8E0000",
"m. c #730000",
"M. c #390000",
"N. c #940000",
"B. c #990000",
"V. c #950909",
"C. c #C60F0F",
"Z. c #4A0000",
"A. c #2B0000",
"S. c #900000",
"D. c #3B0000",
"F. c #800000",
"G. c #A10000",
"H. c #880000",
"J. c #210000",
"K. c #B00000",
"L. c #BB0000",
"P. c #2E0000",
"I. c #530000",
"U. c #760000",
"Y. c #840000",
"T. c #7D0000",
"R. c #D80000",
"E. c #8F0000",
"W. c #E10000",
"Q. c #EB0000",
"!. c #A30000",
"~. c #400000",
"^. c #C91919",
"/. c #450000",
"(. c #8B0000",
"). c #B90000",
"_. c #E80000",
"`. c #C00000",
"'. c #BD0000",
"]. c #8D0000",
"[. c #B50000",
"{. c #C40101",
"}. c #920303",
"|. c #C60000",
" X c None",
".X c #620000",
"XX c #8A0000",
"oX c #DD0000",
"OX c #960D0D",
"+X c #981010",
"@X c #CD2A2A",
"#X c #930505",
"$X c #CE3838",
"%X c #270000",
"&X c #500000",
"*X c #5E0000",
"=X c #1B0000",
"-X c #AA0101",
";X c #9B1616",
":X c #350000",
">X c #9E2222",
",X c #9E0000",
"<X c #9A0C0C",
"1X c #D30000",
"2X c #C80000",
"3X c #CC0000",
"4X c #A60000",
"5X c #E40000",
"6X c #C50606",
"7X c #F40000",
"8X c #BE4242",
"9X c #CF3434",
"0X c #B10D0D",
"qX c #8F0909",
"wX c #A12828",
"eX c #C82626",
"rX c #D16161",
"tX c #CB3232",
"yX c #D36666",
"uX c #AF2323",
"iX c #BC4747",
"pX c #BF0505",
"aX c #003404",
"sX c #47704C",
/* pixels */
"            O <.@X@X@X@X@X9Xf 8                         ",
"            Z N 6X{.{.{.{.% e : b <                     ",
"            ;.6X{.{.{.x.{.{.v N , B #                   ",
"            C > > v 0X[.x.x.{.`.0Xc : #                 ",
"              | M 5 V.B.G.).{.2X).+XG B O               ",
"          O ^ p . ;Xj.j.S.,X'.5XR.B.V.. 3 x m           ",
"        + _ f >Xj.j.j.j.j.(.n.|.Q.).N.}.+X:.&           ",
"        n ~ >Xj.j.j.n.(.XXT.g.N._.5XK.j.#Xl x           ",
"        & ) +Xj.j.n.F.k.k.g.m.F.`.7X1XB.j.V.y O         ",
"      # k p OXj.n.F.U.g.g.g.g.U.H.2X5X4X].j.. i #       ",
"      # ..>Xj.n.F.U.g.g.g.g.m.z.m.4XQ.-XY.j.+Xg #       ",
"      O o.;Xn.F.g.g.g.g.d z..XI.*XE.Q.3Xj.j.V.g +       ",
"      V l OXH.F.N.H.g.* 2 I.f.f.f..XL.W.G.(.#Xj : m     ",
"    + *.>XN.!.K.oXK.U.*  Xf.f.Z./.c.E.3XH.Y.j.OXA > 5.  ",
"    1., V.B.|.Q.oXB.g.2 u f.Z./.h.D.XX).U.T.(.V.8X^.C   ",
"  < M wXN.[._.W.B.g.m. Xf.f.c.h.h.D.v.9 * g.T.qX8X^.L Z ",
"  7.G OXB.3XW.B.g.g..X&Xf.Z.~.h.h.D.f.a O.g.U.qX8XC.C.$ ",
"  t r N.[._.R.T.m.g.*Xf.f.Z.~.h.h.D.D.M. XU.Y.OXiXC.C.$ ",
"  t r N.x.Q.).v.m.m.*Xf.f.c.h.h.:XP.P.P.I.U.Y.#X;XpXC.$ ",
"< 0 ;XN.|.oX(.g.U.z.&Xf.f.~.h.M.P.l.l.l.I.g.v.(.B.'.C.$ ",
"a., V.G.R.).T.m.k.z.f.f.f.~.D.:Xl.l.l.%X&Xg.U.XXB.'.C.$ ",
"+ K r `.W.E.g.g.k.z.f.f.Z.~.M.P.l.l.%XJ.~.#.d H.B.'.C.$ ",
"  t T W.Q.H.m.g.k.z.f.f.c.h.M.A.l.%XJ.b.=X; 7 (.G.`.C.$ ",
"  y.u.7X3XF.m.g.k.z.f.f.c.h.M.A.l.J.b.b.=X; 7 E.).{.C.$ ",
"E q.p.5XS.m.g.g.k.z.f.f.c.h.M.A.l.J.b.b.=X; 7 S.L.6XtXH ",
"o 9X5X'.F.m.g.g.k.z.f.f.c.h.M.A.l.J.b.b.=X; 6.S.L.% w.8 ",
"o 9X5X-Xk.g.g.g.k.z.f.f.c.h.M.A.l.J.b.b.P.>.* S.L.% @   ",
"e.tX1X!.v.g.g.g.k.z.f.f.c.h.M.A.l.J.b.b.Z.g.U.S.).% @   ",
"R P 4.N.v.g.g.g.k.z.f.f.c.h.M.A.l.J.b.b.Z.g.k.!.`.% @   ",
"eXJ G.].v.g.g.g.k.z.f.f.c.h.M.A.l.J.b.b.Z.g.v.K.|.% @   ",
"yX^.G.].v.g.g.g.k.z.f.f.c.h.D.:Xl.%X=Xb.Z.g.v.K.|.% @   ",
"$XC.G.].v.g.g.g.k.z.f.f.c.h.h.M.A.l.%XJ.&Xg.v.K.|.% @   ",
"^.x.G.].v.g.g.g.k.z.f.f.c.h.h.M.A.l.l.l.I.g.v.K.{.C.@   ",
"^.x.G.].v.g.g.g.k.z.f.f.c.h.h.M.A.l.l.l.I.g.Y.).C.q X   ",
"^.x.G.n.T.U.g.g.k.z.f.f.c.h.h.h.:XP.P.P.I.U.K.5XC.5 -   ",
"^.x.G.S.(.k.m.g.k.z.f.f./.h.h.h.h.D.D.D. Xj.oX_.-X. -.  ",
"^.{.uX+X(.T.Y.g.U.z.f.f.Z.~.h.h.h.h.h.@.&.x.W.).<Xq <   ",
"r.^.rXwX(.H.[.-XB.[ f.f.f.~.h.h.h.h.h.( %.R.[.S.<XD     ",
"I $Xe 0.].H.x._.$.2 I.f.f./.h.h.h.h.D. XL.oXG.#X, z     ",
"o $Xi.1 E.H.G.R.|.k.*Xf.f.f./.h.h.h./.Y.oX).S.OX0 8     ",
"o $Xi.1 }.H.H.1X5X,X*Xf.f.f.Z./.c.h.&X!.{.,Xj.OXh       ",
"o $Xi.1 }.XXT.K.7X`.z. Xf.f.f.f.Z.c./.m.(.(.#X. H       ",
"o $XW 1 }.E.F.j.W.`.k.z.I.f.f.f.f.a X.s (.j.+X/ &       ",
"S 9.: h V.j.XXY.`.R.N.m. Xf.u ] .X{ s Y.j.#X5 i #       ",
"  n m - y V.E.(.-XoX).v.z. X .} * k.F.].j.V.3 +         ",
"        - ' j.S.G.1XQ.4XU.z.g.g.v.XXn.j.j.;X3           ",
"          4 V.j.N.K.W.1X,Xv.g.k.F.E.j.j.V.j F           ",
"          - 4 }.j.G.L.R.5XB.T.(.E.j.j.j.,.b #           ",
"            ` <Xj.j.N.K.R.K.B.N.j.j.j.#X3.0 &           ",
"            S c V.S.S.N.[.x.'.!.j.#X<XT J eXz           ",
"            # 6 4 =.j.N.9 U {.L.4X9 P > 8.@XK           ",
"                6 w . 2.A Y {.{.x.U = D L w V           ",
"                & +.6 X I rXY = = = = R w k m           ",
"                        n F q Q ! ! Q t.E +             ",
"                            # X X X X #                 "
};
